<?xml version="1.0" encoding="UTF-8"?><svg id="a" xmlns="http://www.w3.org/2000/svg" viewBox="0 0 1080 1080"><defs><style>.b{fill:#e55101;}</style></defs><path class="b" d="M199.31,353.04c5.8,98.86,27.24,196.79,67.16,287.59,36.34,82.66,88.71,158.59,154.92,220.17,36.19,33.66,76.44,63.01,119.9,86.57,9.62,5.22,18.21-9.46,8.58-14.68-75.56-40.98-141-99.54-192.2-168.46-55.41-74.59-93.98-160.4-116.8-250.3-13.38-52.71-21.38-106.63-24.56-160.9-.64-10.87-17.64-10.95-17,0h0Z"/><path class="b" d="M878.79,353.04c-5.65,96.24-26.45,192.32-65.57,280.65-35.69,80.58-86.41,154.33-150.95,214.53-35.32,32.95-74.58,61.43-117.05,84.46-9.62,5.22-1.05,19.9,8.58,14.68,77.77-42.17,144.5-102.54,197.33-173.26,56.9-76.17,96.46-164.52,119.7-256.52,13.6-53.87,21.69-109.1,24.95-164.54,.64-10.93-16.36-10.89-17,0h0Z"/><path class="b" d="M211.46,352.11c47.84,16.31,97.59-12.6,128.05-48.26,33.22-38.88,52.97-88.16,90.84-123.2,18.7-17.3,41.89-30.86,67.84-32.18,10.89-.55,10.95-17.56,0-17-49.67,2.52-87.48,39.36-114.41,77.97-28.31,40.6-50.46,89.49-94.77,115.49-22.1,12.97-48.19,19.26-73.04,10.79-10.38-3.54-14.83,12.88-4.52,16.39h0Z"/><path class="b" d="M885.03,335.71c-46.64,15.9-91.74-17.82-118.83-52.89-30.77-39.82-51.2-87.7-90.63-120.44-20.84-17.31-45.36-29.53-72.75-30.92-10.93-.55-10.9,16.45,0,17,48.95,2.48,83.67,44.65,108.44,82.48,27.71,42.32,53.22,89.8,100.5,113.17,24.09,11.9,51.86,16.83,77.8,7.99,10.3-3.51,5.88-19.94-4.52-16.39h0Z"/><g><path class="b" d="M545.91,382.81c-52.26-12.01-104-26.24-155.06-42.63-10.44-3.35-14.91,13.06-4.52,16.39,51.06,16.4,102.79,30.62,155.06,42.63,10.65,2.45,15.19-13.94,4.52-16.39h0Z"/><path class="b" d="M377,343.96c-17.25,32.51-32.38,66.1-45.38,100.53-1.62,4.3,1.8,9.32,5.94,10.46,4.77,1.31,8.83-1.63,10.46-5.94,12.49-33.06,27.1-65.25,43.67-96.47,5.13-9.66-9.54-18.26-14.68-8.58h0Z"/><path class="b" d="M335.52,463.83c19.85,15.3,40.22,29.9,61.08,43.78,9.14,6.07,17.66-8.64,8.58-14.68-20.87-13.88-41.24-28.48-61.08-43.78-3.64-2.81-9.52-.56-11.63,3.05-2.57,4.39-.6,8.82,3.05,11.63h0Z"/><path class="b" d="M392.42,498.62c-17.99,37.59-35.6,75.37-52.82,113.33-1.9,4.18-1.2,9.15,3.05,11.63,3.65,2.13,9.72,1.15,11.63-3.05,17.22-37.96,34.82-75.73,52.82-113.33,4.7-9.82-9.95-18.45-14.68-8.58h0Z"/><path class="b" d="M345.75,631.32c44.98,57.18,94.34,110.89,147.62,160.43,15.09,14.04,30.51,27.73,46.2,41.09,8.28,7.06,20.37-4.91,12.02-12.02-55.39-47.18-107.13-98.59-154.56-153.76-13.44-15.63-26.52-31.56-39.26-47.76-2.84-3.61-9.05-2.97-12.02,0-3.57,3.57-2.85,8.4,0,12.02h0Z"/></g><g><path class="b" d="M553.71,398.99c52.26-12.01,104-26.24,155.06-42.63,10.38-3.33,5.94-19.75-4.52-16.39-51.06,16.4-102.79,30.62-155.06,42.63-10.66,2.45-6.15,18.84,4.52,16.39h0Z"/><path class="b" d="M703.43,352.33c16.57,31.22,31.18,63.41,43.67,96.47,1.62,4.29,5.74,7.23,10.46,5.94,4.12-1.13,7.57-6.14,5.94-10.46-13-34.43-28.13-68.02-45.38-100.53-5.13-9.67-19.81-1.09-14.68,8.58h0Z"/><path class="b" d="M751,448.94c-19.85,15.3-40.22,29.9-61.08,43.78-9.07,6.03-.56,20.76,8.58,14.68,20.87-13.88,41.24-28.48,61.08-43.78,3.63-2.8,5.58-7.31,3.05-11.63-2.09-3.57-7.97-5.87-11.63-3.05h0Z"/><path class="b" d="M688,506.99c17.99,37.59,35.6,75.37,52.82,113.33,1.9,4.18,7.96,5.2,11.63,3.05,4.3-2.51,4.95-7.43,3.05-11.63-17.22-37.96-34.82-75.73-52.82-113.33-4.72-9.86-19.38-1.25-14.68,8.58h0Z"/><path class="b" d="M737.33,619.09c-44.98,57.18-94.34,110.89-147.62,160.43-15.09,14.04-30.51,27.73-46.2,41.09-8.34,7.1,3.73,19.08,12.02,12.02,55.39-47.18,107.13-98.59,154.56-153.76,13.44-15.63,26.52-31.56,39.26-47.76,2.84-3.6,3.52-8.5,0-12.02-2.95-2.95-9.17-3.63-12.02,0h0Z"/></g><path class="b" d="M428.41,450.96c35.39-.28,70.77,.37,106.12,1.94,10.94,.49,10.91-16.51,0-17-35.35-1.57-70.74-2.22-106.12-1.94-10.93,.09-10.96,17.09,0,17h0Z"/><path class="b" d="M506.54,615.34c31.81-16.56,71.2-15.91,102.53,1.47,9.57,5.31,18.16-9.36,8.58-14.68-36.8-20.41-82.4-20.89-119.69-1.47-9.71,5.05-1.12,19.73,8.58,14.68h0Z"/><path class="b" d="M587.03,452.36l83.41,1.43c10.94,.19,10.95-16.81,0-17l-83.41-1.43c-10.94-.19-10.95,16.81,0,17h0Z"/><path class="b" d="M526.33,446.58c-19.1,51.13-32.52,104.23-40.01,158.29-.63,4.54,1.1,9.13,5.94,10.46,3.97,1.09,9.82-1.36,10.46-5.94,7.49-54.06,20.91-107.16,40.01-158.29,1.61-4.3-1.79-9.32-5.94-10.46-4.76-1.31-8.84,1.62-10.46,5.94h0Z"/><path class="b" d="M573,449.32c14.91,51.49,25.51,104.19,31.4,157.47,.5,4.56,3.55,8.5,8.5,8.5,4.2,0,9.01-3.91,8.5-8.5-6.06-54.81-16.67-109.01-32-161.99-3.04-10.49-19.45-6.03-16.39,4.52h0Z"/><path class="b" d="M544.62,608.61l.33,44c.08,10.93,17.08,10.96,17,0l-.33-44c-.08-10.93-17.08-10.96-17,0h0Z"/><path class="b" d="M542.79,653.1c-24.12,34.87-47.5,70.24-70.14,106.09-5.86,9.28,8.85,17.82,14.68,8.58,22.64-35.85,46.02-71.22,70.14-106.09,6.24-9.02-8.49-17.53-14.68-8.58h0Z"/><path class="b" d="M553.33,665.42c25.72,29.42,52.02,58.32,78.9,86.68,7.54,7.96,19.55-4.08,12.02-12.02-26.88-28.36-53.18-57.26-78.9-86.68-7.21-8.25-19.2,3.81-12.02,12.02h0Z"/><path class="b" d="M215.11,356.31c-.5-3.42-.26-7.51,.45-10.93,.93-4.49-1.31-9.18-5.94-10.46-4.21-1.16-9.53,1.42-10.46,5.94-1.39,6.76-1.44,13.16-.45,19.97,.67,4.55,6.42,7.05,10.46,5.94,4.88-1.34,6.6-5.9,5.94-10.46h0Z"/><path class="b" d="M894.32,367.18c.2-4.62,.52-9.22,1.02-13.81s1.23-8.47,0-12.87c-2.92-10.53-19.33-6.06-16.39,4.52,.83,2.98-.51,7.18-.8,10.19-.39,3.98-.65,7.98-.83,11.98-.48,10.94,16.52,10.92,17,0h0Z"/><path class="b" d="M337.24,460.78c10.94,0,10.96-17,0-17s-10.96,17,0,17h0Z"/><path class="b" d="M345.9,628.02c10.94,0,10.96-17,0-17s-10.96,17,0,17h0Z"/><path class="b" d="M548.07,402.58c10.94,0,10.96-17,0-17s-10.96,17,0,17h0Z"/><path class="b" d="M758.12,460.56c10.94,0,10.96-17,0-17s-10.96,17,0,17h0Z"/><path class="b" d="M745.91,627.89c10.94,0,10.96-17,0-17s-10.96,17,0,17h0Z"/><path class="b" d="M747.44,627.89c10.94,0,10.96-17,0-17s-10.96,17,0,17h0Z"/><path class="b" d="M547.58,837.7c10.94,0,10.96-17,0-17s-10.96,17,0,17h0Z"/><path class="b" d="M498.72,618.4c10.94,0,10.96-17,0-17s-10.96,17,0,17h0Z"/></svg>