<?xml version="1.0" encoding="UTF-8"?><svg id="a" xmlns="http://www.w3.org/2000/svg" viewBox="0 0 1080 1080"><defs><style>.b{stroke-linecap:round;}.b,.c{fill:none;stroke:#e50132;stroke-miterlimit:10;stroke-width:23px;}.d{fill:#e50132;}</style></defs><circle class="c" cx="540" cy="403.53" r="66.19"/><path class="b" d="M316.34,196.27c19.53-12.74,40.21-23.85,61.85-33.14"/><path class="b" d="M568.99,130.97c25.38,1.76,50.11,5.84,74.01,12.03"/><path class="b" d="M820.82,241.21c79.55,74.79,129.23,180.99,129.23,298.79,0,226.46-183.59,410.05-410.05,410.05s-410.05-183.59-410.05-410.05c0-117.39,49.33-223.26,128.4-298.01"/><path class="b" d="M700.98,162.77c21.64,9.24,42.32,20.29,61.86,32.97"/><path class="b" d="M436.18,143.21c24.15-6.3,49.16-10.46,74.83-12.24"/><path class="c" d="M540,705.13h-30.39c-30.62,0-52.21-33.96-42.45-66.77l26.5-89.13,3.89-13.09c13.68-46.01,71.23-46.01,84.91,0l3.89,13.09,26.5,89.13c9.75,32.81-11.84,66.77-42.45,66.77h-30.39Z"/><line class="c" x1="509.61" y1="705.13" x2="498.27" y2="947.95"/><line class="c" x1="570.39" y1="705.13" x2="592.06" y2="946.77"/><path class="b" d="M505.63,519.26l-65.03,42.76c-14.37,9.45-17.57,27.17-7.71,42.75l34.28,54.19"/><path class="b" d="M575.99,519.26l65.03,42.76c14.37,9.45,17.57,27.17,7.71,42.75l-34.28,54.19"/><line class="b" x1="540" y1="74.73" x2="540" y2="268.02"/><line class="b" x1="691.71" y1="113.39" x2="610.53" y2="281.55"/><line class="b" x1="386.6" y1="111.66" x2="467.78" y2="279.82"/><line class="b" x1="664.26" y1="337.34" x2="805.36" y2="211.96"/><line class="b" x1="417.82" y1="337.34" x2="276.71" y2="211.96"/><line class="b" x1="692.03" y1="391.72" x2="794.47" y2="366.59"/><line class="b" x1="378.19" y1="391.72" x2="275.75" y2="366.59"/><g><path class="d" d="M775.56,602.65c22.42-20.1,37.73-47.95,43.17-77.52l-22.59-3.06c-4.24,31.75,4.19,65.6,23.62,91.17,3.75,4.94,9.91,7.53,15.73,4.13,4.86-2.84,7.91-10.76,4.13-15.73-17.4-22.89-24.27-51.16-20.48-79.56,.75-5.58-4.95-10.7-9.97-11.29s-11.57,2.53-12.62,8.24c-4.8,26.08-17.46,49.63-37.25,67.37-4.63,4.15-4.22,12.04,0,16.26,4.6,4.6,11.63,4.16,16.26,0h0Z"/><path class="d" d="M820.94,604.11c-22.42,20.1-37.73,47.95-43.17,77.52l22.59,3.06c4.24-31.75-4.19-65.6-23.62-91.17-3.75-4.94-9.91-7.53-15.73-4.13-4.86,2.84-7.91,10.76-4.13,15.73,17.4,22.89,24.27,51.16,20.48,79.56-.75,5.58,4.95,10.7,9.97,11.29s11.57-2.53,12.62-8.24c4.8-26.08,17.46-49.63,37.25-67.37,4.63-4.15,4.22-12.04,0-16.26-4.6-4.6-11.63-4.16-16.26,0h0Z"/></g><g><path class="d" d="M334.48,582.33c-19.79-17.75-32.46-41.29-37.25-67.37-1.02-5.55-7.42-9.02-12.62-8.24s-10.74,5.56-9.97,11.29c3.79,28.4-3.09,56.68-20.48,79.56-3.76,4.95-.78,12.87,4.13,15.73,5.91,3.45,11.96,.83,15.73-4.13,19.44-25.57,27.86-59.42,23.62-91.17l-22.59,3.06c5.44,29.57,20.75,57.42,43.17,77.52,4.62,4.14,11.7,4.56,16.26,0,4.22-4.22,4.64-12.1,0-16.26h0Z"/><path class="d" d="M256.57,616.31c19.79,17.75,32.46,41.29,37.25,67.37,1.02,5.55,7.42,9.02,12.62,8.24s10.74-5.56,9.97-11.29c-3.79-28.4,3.09-56.68,20.48-79.56,3.76-4.95,.78-12.87-4.13-15.73-5.91-3.45-11.96-.83-15.73,4.13-19.44,25.57-27.86,59.42-23.62,91.17l22.59-3.06c-5.44-29.57-20.75-57.42-43.17-77.52-4.62-4.14-11.7-4.56-16.26,0-4.22,4.22-4.64,12.1,0,16.26h0Z"/></g></svg>