<?xml version="1.0" encoding="UTF-8"?><svg id="a" xmlns="http://www.w3.org/2000/svg" viewBox="0 0 1080 1080"><defs><style>.b{fill:none;stroke:#e5019b;stroke-miterlimit:10;stroke-width:23px;}.c{fill:#e5019b;}</style></defs><path class="b" d="M778.96,257.97c102.15,73.88,168.66,194.4,168.66,330.54,0,224.78-181.32,407-405,407s-405-182.22-405-407c0-149.32,80.02-279.86,199.32-350.68"/><path class="c" d="M378.36,825.4c84.63,4.81,169.42,6.59,254.18,5.27,23.84-.37,47.67-.99,71.49-1.85,14.76-.53,14.83-23.53,0-23-84.71,3.03-169.53,3.03-254.24-.07-23.82-.87-47.64-1.99-71.44-3.35-6.21-.35-11.5,5.54-11.5,11.5,0,6.52,5.27,11.15,11.5,11.5h0Z"/><path class="c" d="M364.09,813.05c-13.3,27.19-24.85,65.05,0,89.6,11.26,11.12,27.01,15.67,42.26,17.92,19,2.8,38.2,4.55,57.34,6,77.02,5.84,155.65,3.71,231.87-9.47,8.92-1.54,18.01-4.46,24.58-10.99,7.36-7.33,9.45-17.44,10.16-27.43,1.55-21.9-.71-44.21-5.46-65.6-1.34-6.07-8.38-9.62-14.15-8.03-6.25,1.72-9.38,8.06-8.03,14.15,3.66,16.53,5.34,33.31,5.01,50.24-.11,5.75,.66,14.25-2.85,19.25-2.73,3.89-8.3,4.89-13.24,5.85-33.14,6.41-67.46,9.01-101.12,10.72-35.09,1.78-70.27,1.64-105.35-.28-17.54-.96-35.06-2.38-52.53-4.23-13.79-1.46-28.27-2.19-41.31-7.44-12.35-4.97-18.76-15.3-18.89-27.61-.15-14.08,5.33-28.29,11.57-41.04,2.73-5.58,1.51-12.44-4.13-15.73-5.06-2.96-12.99-1.48-15.73,4.13h0Z"/><path class="c" d="M681.66,809.1c.24-35.24-.13-70.54,.77-105.77,.31-11.9,1.2-24.66,7.1-34.67,2.56-4.34,5.94-7.55,10.81-10.02,1.57-.8,4.51-1.77,7.17-2.44,3.06-.77,6.19-1.34,9.32-1.76,11.18-1.51,25.47-1.86,37.09-6.72,14.07-5.88,23.37-17.7,26.79-32.54,3.71-16.1,3-33.46,3.37-49.87,.41-18.22,.54-36.45,.38-54.68-.36-41.09-2.2-82.17-5.44-123.13-.49-6.19-4.93-11.5-11.5-11.5-5.84,0-11.99,5.27-11.5,11.5,2.88,36.34,4.66,72.76,5.27,109.22,.3,18.22,.32,36.45,.05,54.68-.25,17.08,.12,34.57-1.77,51.57-.65,5.88-1.99,12.34-5.61,17.14-2.9,3.85-6.79,5.94-10.53,7.11-12.03,3.77-23.82,3.37-36.77,5.69-14.09,2.53-26.29,9.12-34.79,20.79-8.23,11.3-10.82,25.88-11.94,39.5-1.47,17.92-.74,36.12-.87,54.09l-.42,61.82c-.1,14.8,22.9,14.82,23,0h0Z"/><path class="c" d="M441.3,799.31c-.24-35.24,.13-70.54-.77-105.77-.36-14.18-1.97-28.39-7.78-41.45s-16.88-22.3-30.35-26.74c-11.86-3.91-25.94-3.82-36.97-5.77-6-1.06-10.25-2.14-14.78-4.96-1.19-.74-3.19-2.36-4.66-4.3-1.83-2.43-2.97-5.22-3.81-8.09-1.82-6.24-2.2-12.65-2.47-19.11-.38-9.19-.64-18.4-.85-27.6-.41-18.22-.54-36.45-.38-54.68,.36-41.09,2.2-82.17,5.44-123.13,.49-6.2-5.64-11.5-11.5-11.5-6.63,0-11.01,5.28-11.5,11.5-2.88,36.34-4.66,72.76-5.27,109.22-.3,18.22-.32,36.45-.05,54.68,.25,17.11,0,34.53,1.77,51.57,1.64,15.9,6.59,30.61,20.09,40.23,10.88,7.76,24.87,9.07,37.74,10.4,10.34,1.07,22.74,1.89,30.35,9,7.96,7.44,10.56,19.66,11.46,30.6,1.47,17.92,.74,36.12,.87,54.09l.42,61.82c.1,14.79,23.1,14.83,23,0h0Z"/><path class="c" d="M345.14,385.04l233.42-5.23c14.78-.33,14.83-23.33,0-23l-233.42,5.23c-14.78,.33-14.83,23.33,0,23h0Z"/><path class="c" d="M571.16,378.27c6.95,23.48,5.41,47.9-3.83,70.54-2.35,5.75,2.55,12.64,8.03,14.15,6.59,1.81,11.79-2.26,14.15-8.03,10.66-26.12,11.82-55.75,3.83-82.77-4.19-14.16-26.39-8.13-22.18,6.11h0Z"/><path class="c" d="M566.39,444.33l-135.89,4.81c-14.76,.52-14.83,23.52,0,23l135.89-4.81c14.76-.52,14.83-23.52,0-23h0Z"/><path class="c" d="M432.68,480.4c55.03,15.69,97.47,68.12,101.07,124.83,.39,6.2,5,11.5,11.5,11.5,5.92,0,11.9-5.27,11.5-11.5-3.33-52.46-33.23-101.02-77.55-129.02-12.48-7.88-26.21-13.95-40.4-17.99s-20.35,18.12-6.11,22.18h0Z"/><path class="c" d="M748.24,424.88c-13.58,9.1-30.71,11.41-46.05,5.43-13.51-5.26-23.82-17.6-27.83-31.32-2.53-8.68-1.87-17.25-1.64-26.45l.83-33.91,1.61-65.82,1.65-67.81c.22-9.01-.38-18.59,1.68-26.55,1.68-6.49,4.93-12.99,9.21-18.05,9.29-10.98,22.24-18.18,36.04-18.19,13.68,0,26.8,7.36,35.8,18.58,4.61,5.75,7.86,12.69,9.45,20.23,1.89,8.97,.31,21.21-.02,31.31l-2.51,75.83c-.49,14.8,22.51,14.79,23,0l2.51-75.83c.37-11.31,1.53-22.78-.2-34.02-1.37-8.9-4.84-17.67-9.67-25.26-10.07-15.82-26.39-28.46-44.95-32.34s-38.49,.84-53.85,12.47c-15.78,11.95-26.46,29.22-28.7,49.01-1.3,11.44-.81,23.27-1.09,34.78l-.92,37.9-1.8,73.8-.92,37.9c-.28,11.46-1.19,22.94,1.23,34.25,4.65,21.76,20.28,41.17,40.73,49.95,21.91,9.4,48.14,7.32,68.03-6.01,5.15-3.45,7.4-10.14,4.13-15.73-2.99-5.11-10.55-7.6-15.73-4.13h0Z"/><path class="c" d="M655.8,421.16c-14.24,17.35-37.09,26.03-58.52,21.48-6.07-1.29-12.43,1.79-14.15,8.03-1.57,5.72,1.93,12.85,8.03,14.15,29.46,6.25,61.6-3.88,80.89-27.39,3.94-4.8,4.69-11.57,0-16.26-4.06-4.06-12.3-4.82-16.26,0h0Z"/><path class="c" d="M554.5,352.62l-1.38-162.8c-.09-10.51-.51-18.8,3.74-28.5,3.13-7.14,8.46-14.07,14.76-19.55,13.23-11.51,30.73-14.73,47.04-8.59s31.44,23.95,32.96,41.83c.53,6.19,4.91,11.5,11.5,11.5,5.81,0,12.03-5.28,11.5-11.5-2.03-23.82-15.55-44.88-35.89-57.39s-44.53-13.66-65.96-3.74c-20.05,9.28-36.15,28.95-40.99,50.54-3.01,13.42-1.65,27.62-1.53,41.26l.39,45.66,.86,101.25c.13,14.79,23.13,14.83,23,0h0Z"/><path class="c" d="M445.6,362.66c-5.99-50.68-6.46-101.96-1.21-152.73,1.25-12.15,2.85-24.25,4.8-36.31,.98-6.06,2.04-12.1,3.18-18.13,.99-5.24,1.72-10.78,3.91-15.69,6.43-14.47,22.31-24.78,38.05-24.2,18.3,.67,34.12,16.11,37.3,34.39,1.06,6.12,8.57,9.56,14.15,8.03,6.47-1.78,9.1-8.01,8.03-14.15-3.94-22.65-21.77-41.36-43.32-48.48s-46.3,.18-62.23,16.32c-18.26,18.49-19.98,45.71-23.41,70.15-4,28.53-6.44,57.24-6.98,86.05-.59,31.65,1.03,63.3,4.74,94.74,.73,6.17,4.76,11.5,11.5,11.5,5.65,0,12.23-5.29,11.5-11.5h0Z"/><path class="c" d="M350.8,371.17c6.3-40.14-3.85-79.55-3.09-119.71,.59-31.01,9.47-63.6,38.38-78.2,6.1-3.08,13.78-5.18,20.16-5.4,7.12-.24,13.4,1.1,19.64,4.63,12.9,7.3,24.5-12.56,11.61-19.86-31.68-17.94-70.96-2.33-91.59,25.03-23.99,31.81-22.78,75.03-19.21,112.66,2.34,24.68,5.8,50.03,1.92,74.73-.96,6.13,1.57,12.37,8.03,14.15,5.46,1.5,13.18-1.86,14.15-8.03h0Z"/><g><path class="c" d="M191.66,611.97c29.97-32.76,47.67-74.99,50.08-119.32h-23c-.33,47.2,19.29,93.71,53.46,126.3,10.71,10.22,27-6.02,16.26-16.26-29.93-28.55-47.01-68.66-46.72-110.04,.11-14.89-22.2-14.7-23,0-2.08,38.05-17.63,74.95-43.35,103.05-4.19,4.58-4.53,11.73,0,16.26,4.25,4.25,12.06,4.6,16.26,0h0Z"/><path class="c" d="M272.2,609.68c-29.97,32.76-47.67,74.99-50.08,119.32h23c.33-47.2-19.29-93.71-53.46-126.3-10.71-10.22-27,6.02-16.26,16.26,29.93,28.55,47.01,68.66,46.72,110.04-.11,14.89,22.2,14.7,23,0,2.08-38.05,17.63-74.95,43.35-103.05,4.19-4.58,4.53-11.73,0-16.26-4.25-4.25-12.06-4.6-16.26,0h0Z"/></g><g><path class="c" d="M827.66,611.97c29.97-32.76,47.67-74.99,50.08-119.32h-23c-.33,47.2,19.29,93.71,53.46,126.3,10.71,10.22,27-6.02,16.26-16.26-29.93-28.55-47.01-68.66-46.72-110.04,.11-14.89-22.2-14.7-23,0-2.08,38.05-17.63,74.95-43.35,103.05-4.19,4.58-4.53,11.73,0,16.26,4.25,4.25,12.06,4.6,16.26,0h0Z"/><path class="c" d="M908.2,609.68c-29.97,32.76-47.67,74.99-50.08,119.32h23c.33-47.2-19.29-93.71-53.46-126.3-10.71-10.22-27,6.02-16.26,16.26,29.93,28.55,47.01,68.66,46.72,110.04-.11,14.89,22.2,14.7,23,0,2.08-38.05,17.63-74.95,43.35-103.05,4.19-4.58,4.53-11.73,0-16.26-4.25-4.25-12.06-4.6-16.26,0h0Z"/></g></svg>