<?xml version="1.0" encoding="UTF-8"?><svg id="a" xmlns="http://www.w3.org/2000/svg" xmlns:xlink="http://www.w3.org/1999/xlink" viewBox="0 0 4261.95 1920"><defs><style>.c{fill:url(#b);}.d{fill:none;}.e{font-family:Anton-Regular, Anton;font-size:601.98px;letter-spacing:.12em;}.e,.f,.g{fill:#fff;}.h{fill:#0141e5;}.i{fill:#1d1d1d;}.j,.k{fill:#373737;}.f{opacity:.2;}.l{opacity:.85;}.m{opacity:.8;}.g,.k{opacity:.3;}</style><linearGradient id="b" x1="1469.96" y1="722.43" x2="2861.84" y2="1275.04" gradientTransform="translate(-375.73 422.56) rotate(-12.08)" gradientUnits="userSpaceOnUse"><stop offset="0" stop-color="#e55101"/><stop offset=".23" stop-color="#e50132"/><stop offset=".49" stop-color="#e5019b"/><stop offset=".73" stop-color="#d001e5"/><stop offset="1" stop-color="#0141e5"/></linearGradient></defs><g><path class="i" d="M3004.26,1049.43c-.22,1.22,1.65-3.18,1.36-.53,.51-.82,.83-2.17,1.09-3.62,.13-.72,.26-1.47,.38-2.17,.14-.7,.35-1.33,.56-1.87,1.17,.12,1.5,2.28,3.6-1.2,.56-1.21,.82-1.86,.77-2.29-.03-.43-.29-.61-.59-.78-.59-.34-1.29-.65-.41-2.94l-1.56,2.98c-.12-.95,.05-2.11,.42-3.4,.37-1.29,1.04-2.64,1.74-4.07,.67-1.44,1.6-2.83,2.41-4.24,.79-1.42,1.7-2.74,2.39-4.02,1.7-1.5,3.82-2.51,5.73-3.79,.95-.65,1.98-1.26,2.88-2.05,.92-.78,1.76-1.71,2.62-2.78-.08,.34-.69,1.59-.06,1.79,1.08-.36,2.06-1.81,2.6-2.72,1.04-2.96-1.83-.69-1.81-2.17,.6-1.11,1.23-2.17,2.02-3.25,.4-.53,.86-1.07,1.4-1.57,.57-.48,1.23-.93,2-1.35,1.63-.28,3.21-.54,4.85-.66,.2-2.07,1.67-3.25,3.68-4.17,1-.47,2.08-.98,3.24-1.52,1.16-.53,2.34-1.17,3.48-2.08,.86,.46,2.35-.49,4.08-1.3,.86-.41,1.79-.76,2.63-.9,.84-.14,1.55-.06,1.91,.32,1.58-.12,1.68,1.06,1.65,2.29-.03,1.26-.03,2.65,.5,3.36,.95,.78,.46,.86,.12,.94-.18,.02-.35,.12-.37,.24-.03,.13,.09,.32,.39,.69-.44,.01-.6-.18-.76-.57-.16-.38-.26-.92-.41-1.48-.16-.54-.39-1.1-.89-1.42-.5-.32-1.29-.43-2.43,.06l.4,.51c-.78,.7-2.09,.97-3.37,1.42-1.27,.44-2.43,1.07-2.67,2.13-2.51,1.14-2.76,.7-2.8-.12-.04-.8,.21-1.91-1.35-1.75-.35,1.04-1.84,2.48-3.05,3.95-1.17,1.53-2.12,2.99-1.59,3.86,1.15-.83,2.28-1.71,3.45-2.51-.55,.41,.13,.48,0,.78-.86,.03-1.63,.75-2.3,1.7-.33,.47-.64,1-.92,1.53-.25,.56-.5,1.12-.73,1.63-.89,2.02-1.59,3.24-2.71,.35,.2-.63,1.48-1.43,1.41-2.22-1.02-.91-2.93,1.44-4.59,2.92-.34,1.31-.6,2.77-1.02,4.25-.22,.72-.51,1.42-.93,2.06-.21,.32-.46,.62-.74,.91-.26,.3-.57,.59-.92,.86-1.05,.68-1.23-.4-2.29,.3-.89,1.59-1.55,2.74-2.29,3.56-.72,.84-1.46,1.38-2.15,1.99-.71,.59-1.45,1.19-2.24,2.07-.81,.86-1.52,2.11-2.33,3.85-1,.82-1.7,1.9-2.44,3-.35,.56-.7,1.13-1.02,1.72-.29,.61-.58,1.22-.87,1.83-1.2,2.43-2.13,4.95-3.7,7.05,1.37-.36-.31,3.28-.74,4.21-.66,.54-2.14,3.05-2.13,5.07,.13-1.16-.51-.55-.66-1.41-.11,4.53-2.04,5.14-3.24,5.29-.23-3.64-2.24-4.39-.66-8.54Z"/><path class="i" d="M3071.54,1001.51c-1.33,.03-.72,2.02-.54,3.6,.1,.79,.14,1.49-.08,1.77-.22,.29-.66,.14-1.58-.64,.2,2.71,.76,3.82,1.69,5.25,.45-3.24,.46,.73,1.34-1.11,2.44,9.89,2.94,19.54,2.6,28.87-.23,.87-.41,1.72-.54,2.56-.15,.84-.26,1.67-.32,2.5-.12,1.65-.08,3.28,.08,4.9,.13,1.62,.34,3.25,.63,4.9,.28,1.65,.64,3.32,.91,5.03-1.11,4.04-2.68,1.17-3.91,.14l-.57,5.07-1.06-5.27c-.94-.25-1.24,2.02-2.07,3.19l.1,1.44c-2.14-1.09-1.87-3.55-1.16-6.39,.66-2.83,1.69-6.07,1.18-8.49-.05,5.77,1.54-.82,2.27,1.67,.09-.6,.19-1.21,.25-1.81-.03,1.62,1.01,4.9,.94,9.14,1.61-11.68-.18-23.5-2.85-32.84,.3,.26,.71,.98,.97,.11-.14-3.44-2.65-5.26-3.55-6.66,.29,.47,.59,.94,.86,1.42,.83-2.17-1.04-5.5-1.51-7.92,.42-1.33,.84-2.48,.93-3.82,.08-1.31-.19-2.9-1.39-4.58l.93-.26c-.3-1.12-.72-2.18-1.26-3.16,.64,.55,.76,.07,.81-.2,.39,.04,.32,.33,.57,.91,.68-.28,1.2-1.06,1.41-2.2,.07-.55,.08-1.21-.04-1.88-.16-.66-.37-1.4-.79-2.04,.33,.33,.61,.68,.87,1,.25,.32,.53,.59,.74,.8-.1-.27-.32-.59-.55-.97-.12-.19-.25-.39-.39-.6-.16-.2-.33-.4-.5-.61-.18-.21-.36-.43-.54-.64l-.62-.61c-.41-.41-.84-.8-1.27-1.12-.82-.7-1.54-1.18-1.72-1.56-.18-.37,.19-.66,1.55-.57,1.02,.44,1.87,.9,2.52,1.45,.68,.51,1.15,1.06,1.54,1.58,.4,.51,.65,1.02,.85,1.5,.21,.48,.37,.94,.46,1.39,.46,1.81,.6,3.35,1.84,5.78Z"/><path class="i" d="M3051.64,1000.64c3.43-.86-.42,1.34,.73,1.91l-2.65,1.54c-.62-.88,2.07-2.45,1.92-3.45Z"/><path class="i" d="M3072.66,1082.12c-.93,.15-1,2.61-1.5,3.91,.17,2.81,.95,3.67-.42,7.4-1.84-3.58-3.8,2.4-6.15,4.59,.09-.97,0-2.39,.13-3.89,.09-1.51,.42-3.1,1.42-4.41,.65,.52,1.76-2,2.25-3.29-.85-2.3-4.14,.77-3.01-7.49,.68-1.43,.65-5.26,2.03-4.79,.67-.97-.91-2.22,.41-3.21l.67-.5c.09,1.77,.05,3.53,.08,5.31-.23,.16-.69,.48-.68,.96,.57-.4,.87,1.09,1.3,2.31,.43,1.22,.97,2.17,2.15,.63l1.13-7.2c.43-.83,.78-.6,1.01,.18,.2,.77,.26,2.09,.15,3.41-1.61,3.62-1.33,3.45-.97,6.08Z"/><path class="i" d="M3072.12,1063.65l.44-.35c-.06,2.13-.28,4.24-.41,6.37-.01-2.02,.04-4.02-.02-6.02Z"/><path class="i" d="M3067.47,1105.55c-.07-1.34,.78-2.23,.67-3.58l1.81,.35c-.78,1.09-1.65,2.16-2.47,3.22Z"/><path class="i" d="M3067.05,1039.24c-1.68-1.64-.76-5.77-2.26-7.1,0,1.12,.39,.72,.68,.99l.48-2.17c.62,1.32,.87,2.65,.94,4.01,.06,1.37,.02,2.77,.16,4.27Z"/><path class="i" d="M3063.32,1117.62c-.64,2.06-.57,3.46-.68,4.89-.12,1.43-.38,2.92-1.86,5.06-.9,.82-.33-1.6-1.35-.3-1.01,1.29-.45,1.92-.42,2.78l.79-.33c-1.57,.68-3.97,3.78-4.99,1.18,1.47-2.76,1.45-5.23,1.52-7.44,.01-2.24,.1-4.22,1.88-6.1l2.13-.11c.19-.96,.32-1.93,.49-2.89,.25-.12,.68,.12,.84-.85-.11-2.16-1.34,1.1-2.19,.62l.67-5.61c.31-.61,.36,.71,.61,.58,1.69-2.22-.56-4.63,1.74-6.28v3.58c.71-1.95,1.53-3.6,2.29-5.11,.75-1.52,1.51-2.87,2.22-4.2-.66,1.99-.91,3.84-1.02,5.61-.15,1.76-.12,3.44-.13,5.1,0,.83-.03,1.65-.08,2.47-.07,.82-.19,1.62-.37,2.44-.36,1.62-.98,3.26-2.07,4.91Z"/></g><g><path class="i" d="M3022.34,1057.79c-.27,1.57,1.79-4.16,1.4-.78,1.16-2.17,1.11-7.16,1.84-10.05,1.19-.12,1.67,2.65,3.55-2.39,2.01-6.84-2.1-1.33-.97-7.58l-1.15,4.2c-.51-2.32,.05-5.95,.87-9.94,.83-3.98,1.96-8.29,2.51-11.99,1.23-2.6,2.78-4.99,4.15-7.64,1.38-2.64,2.59-5.53,3.09-9.15,.09,.43,.1,2.27,.77,2.04,.82-1.19,1.04-3.56,1.11-4.97-.45-4-1.98,.66-2.66-.96,.06-3.24-.24-6.38,1.42-10.59l3.64-4.86c-2.24-4.32,2.03-9.39,2.77-16.94,1.91-1.06,1.48-9.16,3.39-10.22,.77-3.44,4.41,.37,6.28-2.11,2.19-4.6-.1,3.53,2.09-1.07-.66,5.41-4.62,.65-5.76,7.86l.66-.21c.23,3.13-2.79,7.73-1.64,10.11-2.12,7.52-2.24-.66-4.42,2.77,.83,2.49-.65,11.22,1.26,11.98l1.32-5.92c-.16,.97,.41,.33,.5,.76-2.81,3.67,2.44,16.14-2.63,11.84-.17-.86,.49-2.9,0-3.66-1.4,0-1.67,4.2-2.46,7.23,.7,3.45,2.23,7.53,.38,12.27-.73,1.62-1.32,.44-2.05,2.06-.68,10.34-3.76,9.26-5.31,19.97-3.01,6.27-3.43,14.61-6.42,20.9,1.4-.77-.29,4.5-.71,5.82-.73,.84-2.3,4.33-2.47,7.03,.27-1.56-.46-.72-.56-1.86-.55,6.06-2.63,6.8-3.82,6.93,.13-4.75-1.67-5.58,.02-10.88Z"/><path class="i" d="M3051.37,937.16c2.1,1.77,3.28-9.76,4.65-3.86,1.36-3.47,1.34-5.21,1.15-7.39-1.88,3.9-.1-1.09-1.73,.84,.53-3.37,1.14-6.69,1.79-9.96,.67-3.27,1.41-6.48,2.18-9.65,.77-3.17,1.58-6.3,2.41-9.4,.85-3.09,1.74-6.14,2.64-9.17,4.22-8.59,4.81-17.05,5.49-26.22,2.18-5.15,2.98-1.17,3.91,.4l1.98-6.67-.42,7.18c.87,.48,1.77-2.53,2.96-4l.31-1.94c3.63,3.44-3.9,13.33-4.45,20.06,1.87-7.76-1.75,.8-1.7-2.69l-.82,2.37c.56-2.16,.54-6.73,1.86-12.35-2.44,7.64-4.32,15.41-5.68,22.95-.69,3.76-1.29,7.46-1.78,11.05-.47,3.59-.86,7.07-1.18,10.38-.17-.44-.26-1.53-.87-.46-1.3,4.54,.35,7.84,.54,10.03l-.18-2.18c-1.74,2.57-1.41,7.6-2.08,11.06-2.04,3.44-3.98,5.59-4.73,12.11l-.88-.45-1.74,4.99c.15-1.31-.36-.88-.62-.66-.18-.44,.08-.65,.41-1.52-1.32-.67-3.89,1.48-5.59,4.09,.33-.87,.67-1.74,.74-2.4-1.18,2.17-4.18,10.01-4.61,5.64,1.71-6.76,4.87-5.86,6.06-12.18Z"/><path class="i" d="M3050.64,967.98c1.94-4.72,.65,1.62,1.9,.77l-.94,4.4c-1.08-.12-.14-4.52-.96-5.18Z"/><path class="i" d="M3078.51,832.42c.97-.16,1.51-3.41,2.27-5.11,.4-3.7-.37-4.85,1.68-9.74,1.28,4.68,4.33-3.21,6.99-6.3-.46,2.59-.41,7.62-2.92,11.16-.59-.7-2.1,2.71-2.85,4.4,.42,3.09,4.39-1.02,1.58,10.14-1.02,1.9-1.89,7.08-3.17,6.36-.9,1.26,.45,3.08-1.15,4.3l-.8,.61,1.14-7.14c.27-.2,.81-.6,.91-1.25-1.34,1.02,.19-8.07-2.83-4.1-.93,3.15-1.84,6.3-2.73,9.46-1.27,2.12-1.19-1.37-.4-4.84,2.42-4.66,2.15-4.46,2.28-7.95Z"/><polygon class="i" points="3074.77 856.92 3074.23 857.32 3076.28 848.91 3074.77 856.92"/><path class="i" d="M3087.43,801.5c-.1,1.75-1.01,3-1.09,4.74l-1.81-.35,2.9-4.39Z"/><path class="i" d="M3072.11,890.6c1.03,2.64-1.37,7.99-.5,10.2,.43-1.51-.09-1.09-.26-1.53l-1.3,2.79c-.19-3.93,1.26-7.35,2.06-11.46Z"/><path class="i" d="M3092.81,785.27c1.54-5.57,0-7.24,3.07-13.33,.95-1.23,.31,2.01,1.39,.12,1.07-1.87,.51-2.58,.48-3.69l-.82,.59c1.64-1.17,4.19-5.76,5.22-2.59-3.18,7.83-.16,12.9-4.08,18.47l-2.21,.48-.72,3.88c-.27,.19-.7-.06-.94,1.24-.06,2.84,1.48-1.63,2.33-1.12l-1.17,7.56c-.39,.84-.3-.9-.57-.7-1.99,3.13,.03,6.12-2.53,8.54l.41-4.78c-1.95,5.31-3.98,9.11-5.81,12.69,3.74-10.67,.95-18.11,5.95-27.35Z"/></g><g><path class="i" d="M2918.36,1030.61c-.18,.81,10.61,5.4,12.03,8.53,7.59,4.41-.1-4.4,2.11-4.49,10.94,8.32,19.77,16.63,29.4,21.15,7.97,2.27-21.65-17.48-20.91-20.66l-4.15-.67c-8.33-7.86-8.74-10.49-7.31-11.86,1.44-1.38,4.74-1.45,3.92-4.46,7.07,4.05,17.42,10.99,25.59,16.11,8.19,5.13,14.2,8.45,12.7,5.06,1.51,1.52,4.72,5.28,10.31,9.8,5.36,3.79,3.39,.81,1.68-1.44-10.68-11.36-16.68-13.67-25.45-22.01-4.88-6.09-12.46-14.6-4.87-10.79,8.04,5.87,16.04,11.79,24.01,17.74-13.58-13.11-12.96-14.11-9.88-13.11,3.08,.97,8.65,4,5.22-1.44,7.41,6.31,6.63,4.21,5.87,2.09-.76-2.12-1.5-4.26,5.83,2.13,.36-.75,10,8.19,21.01,18.45,11.01,10.27,23.39,21.85,29.15,26.51,10.31,7.13,5.64,7.05,15.94,14.21,4.28,6.7-38.3-35.09-35.41-28.36l5.36,4.77c3.73,4.26,1.12,2.93-.68,2.32-1.8-.62-2.78-.52,4.33,6.48-2.54-.26-7.73-4.94-13.88-10.77-6.15-5.83-13.23-12.85-19.73-17.6,11.46,11.67,13.43,18.29,31.63,34.46l1.32-1.96c.23,.72,4.2,3.87,5.69,5.4-9.2-7.11,3.15,5.85,11.42,14.45,8.26,8.62,12.3,13.04-14-10.59-3-3.02-.74-2.13-6.47-7.47-12.48-10.78-7.35-4.08-9.37-4.2,11.99,12.1,32.77,31.54,24.24,26.67-3.79-2.37-11.15-9.07-14.97-11.42,5.61,7.24,.99,4.54-4.7,1.13-5.66-3.42-12.35-7.53-10.56-3.33-8.79-5.38-10.89-5.08-13-4.81-2.11,.28-4.22,.55-13.16-4.58,11.92,8.68,4.22,5.57,2.27,4.82-5.55-3.76-15.04-8.95-12.53-5.6,.13-.75-5.46-4.45-8.12-7.06,4.07,6.34-14.49-6.9-25.61-14.96-5.98-7.16-24.3-21.29-16.27-18.62Z"/><path class="i" d="M2979.4,1005.57c21.04,21.08,10.09,3.45,32.29,28.41,5.07,2.8,1.73-1.43-3.85-8.21-8.64-5.97-2.78-3.39-12.95-12.05-1.61-3.71-2.54-6.78-2.94-9.32-.39-2.53-.23-4.51,.31-6.09,.54-1.57,1.48-2.73,2.68-3.6,1.21-.85,2.69-1.4,4.29-1.79,9.13,6.61,10.68,5.49,8.62,.31-2.08-5.18-7.82-14.48-13.56-24.12,7.52,4.5,20.98,22.32,31.15,34.5,.88-.51,1.79-1,2.69-1.48,3.42,5.42,6.87,10.81,10.37,16.19,7.61,8.68,9.08,8.42,15.27,14.39l-1.39-2.74c17.42,20.52,16.28,21.08,11.78,18.31-4.49-2.8-12.45-8.91-8.13-2.29-.12-2.39-3.17-5.59-6.99-9.27-3.82-3.68-8.42-7.84-11.52-12.26l-1.98-.65c.27-1.03-8.52-13.42-8.75-17.42-4.7-.1-4.8,4.99-1.85,12.84,1.47,3.92,3.68,8.51,6.41,13.48,2.75,4.99,6.01,10.36,9.55,15.83-2.25-2.52-5-5.93-7.97-8.3-2.24,.47,17.6,22.15,23.23,28.86l-5.6-6.74c-9.49-8,2.26,6.39,3.2,9.08-10.72-8.67-22.74-18.94-17.38-10.23l-8.2-8.05-5.77-2.64c-1.07-1.75-4.67-4.9-6.47-6.47-2.32-2.44-.53-.88,.75-.18-12.36-12.09-30.37-27.78-40.26-35.28,1.3,.64,2.61,1.32,2.09,.41-3.11-2.21-7.61-4.79-12.77-8.45-5.16-3.67-11-8.43-16.65-15.17,2.88-2.07,31.26,25.18,30.28,20.19Z"/><path class="i" d="M3027.66,1068.42c8.42,5.11,8.54,8.55,17.89,16.49l-.28,1.95c-9.6-8.61-9.3-10.61-17.61-18.44Z"/><path class="i" d="M3003.96,957.64c6.93,7.93,4.92,3.15,7.38,4.75-4.01-7.5-11.61-17.47-5.82-14.43,9.14,12.78,15.6,19.82,21.41,25.5,5.81,5.67,10.99,9.94,17.71,17.05,.8,1.9,3.7,6.75,4.98,9.69,1.28,2.94,.94,3.96-4.85-1.73-5.62-7.2-10.4-10.5-12.81-12.12,4.46,6.35,12.14,15.22,18.72,23.5,6.59,8.28,12.12,15.94,12.44,19.78-3.98-3.42-.42,3.9-11.54-9.31-4.47-4.29,9.24,12.49-.59,2.06l-4.93-5.21c-1.63-3.39-3.25-6.79-4.84-10.21,1.64,1.76,4.91,5.25,4.47,4.32-4.07-4.36-7.62-9.79-11.99-15.99-4.38-6.2-9.56-13.19-17.11-20.48-.96,1.19-1.9,2.39-2.83,3.62-5.77-5.01-11.59-14.14-11.96-17.2,9.49,7.37,7.79,5.68,2.16-3.55Z"/><path class="i" d="M3021.47,995.28l-3.34-3.43-.19-6.07c1.16,3.18,2.33,6.35,3.52,9.51Z"/><path class="i" d="M3011.68,942.65c2.67,4.7-1.7,.32,.99,5.01l-13.8-17.19c4.29,4.04,8.55,8.09,12.81,12.18Z"/><path class="i" d="M3064.24,1062.16c13.27,15.32,4.38,8.88,15.56,21.55,.67-.08-2.75-3.39-5-5.93l-5.3-4.01c-8.79-11.11-3.92-7.98-5.26-11.61Z"/><path class="i" d="M3019.49,939.24c.29-4.15-13.65-23.72-3.68-15.99,4.25,4.53,5.91,9.45,9.82,13,3.89,3.55-1.34-3.92-3.52-7.75l-4.56-5.53c4.57,5.52,9.09,10.29,14.06,16.16,4.96,5.89,10.36,12.9,16.88,22.76-3.54-1.61,2.26,8.6,6.99,16.98,4.71,8.39,8.36,14.94,.09,6.32l-14.57-18.37,2.23,5.8c-1.55-1.83-5.02-6.44-4.29-4.51,4.97,8.45,7.37,8.13,14.29,17.35,2.04,4.43,4.1,8.84,6.19,13.23-1.16-.87-3.89-5.52-5.44-7.34-4.08-4.02-1.08,.87,1.28,4.81,2.35,3.95,4.04,6.95-2.81-.68l-6.27-11.2c-3.54-.58-11.4-7.5-17.82-12.59,3.62,.45-3.34-11.46-8.71-21.63-5.41-10.16-9.27-18.64-.17-10.82Z"/></g><g><path class="i" d="M3048.61,1098.86c.07,1.32,.87-3.7,1.2-.9,.67-1.97-.41-6.01-.33-8.49,1.14-.32,2.2,1.83,2.95-2.6,.49-5.92-2.35-.68-2.58-5.96l-.22,3.62c-2-3.57-.94-12.22-1.44-18.43,1.28-4.69,4.03-8.91,3.47-14.98,.18,.33,.59,1.83,1.19,1.53,.54-1.11,.25-3.08,.03-4.24-1.28-3.18-1.8,.88-2.8-.32-.62-2.65-1.57-5.17-.82-8.9l2.55-4.58c-3.06-3.17,.11-8.02-.65-14.33,1.64-1.15-.28-7.76,1.4-8.9,.12-2.94,4.4-.3,5.78-2.58,1.31-4.05,.55,2.9,1.86-1.15,.34,4.5-4.43,1.14-4.2,7.21l.61-.26c.79,2.52-1.26,6.73,.34,8.5-.59,6.47-2.32-.2-3.78,2.95,1.31,1.91,1.59,9.27,3.64,9.57,0-1.68,.06-3.36,.09-5.03,.03,.82,.47,.2,.64,.54-2.06,3.45,5.73,12.7-.14,10.06-.34-.67-.13-2.44-.77-2.98-1.37,.24-.76,3.7-.89,6.29,1.41,2.69,3.74,5.72,2.96,9.9-.36,1.44-1.2,.59-1.56,2.04,1.56,8.51-1.71,8.2-.88,17.17-1.59,5.65-.21,12.49-1.76,18.15,1.2-.89,.67,3.71,.53,4.86-.53,.82-1.34,3.94-.93,6.16-.07-1.32-.6-.5-.94-1.41,.74,5.02-1.13,6-2.26,6.32-.88-3.88-2.82-4.21-2.29-8.82Z"/><path class="i" d="M3052.45,995.39c2.34,1.22,1.63-8.46,3.95-3.71,.78-3.01,.47-4.45-.07-6.25-1.23,3.42-.28-.9-1.58,.87,0-11.44,1.64-22.28,3.98-32.6,.83-1.84,1.49-3.66,1.94-5.48,.45-1.82,.74-3.65,.97-5.48,.22-1.83,.32-3.69,.37-5.58,.08-1.88,.14-3.79,.18-5.74,1.89-4.33,2.88-.89,3.89,.47,.5-1.87,1.07-3.72,1.65-5.57-.06,2.02-.11,4.03-.08,6.05,.89,.44,1.59-2.08,2.72-3.25l.22-1.62c.94,.77,1.2,1.84,1.06,3.09-.13,1.26-.62,2.71-1.26,4.25-1.3,3.06-2.96,6.53-2.97,9.34,1.24-6.47-1.67,.66-1.89-2.26l-.63,1.98c.41-1.8-.04-5.68,1-10.38-4.01,12.79-4.84,26.27-4.33,37.32-.23-.35-.47-1.25-.92-.33-.65,3.87,1.43,6.48,1.94,8.26-.18-.6-.33-1.19-.49-1.78-1.36,2.26-.28,6.38-.43,9.28-1.44,3.03-3.03,5-2.67,10.45l-.94-.27-.87,4.31c-.07-1.09-.51-.68-.72-.47-.25-.34-.04-.55,.15-1.3-1.4-.4-3.61,1.69-4.79,4.06,.17-.76,.33-1.52,.3-2.08-.79,1.94-2.29,8.84-3.51,5.27,.44-5.85,3.74-5.48,3.84-10.87Z"/><path class="i" d="M3057.34,1020.85c.97-4.14,.96,1.23,2.02,.35l-.05,3.73c-1.08,.07-1.03-3.66-1.96-4.08Z"/><path class="i" d="M3070.07,906.33c.48-.02,.84-.72,1.21-1.57,.38-.85,.74-1.87,1.14-2.55,.52-3.11-.25-4.25,2.04-8.15,.5,2.11,1.61,1.57,2.92,.26,1.32-1.32,2.81-3.44,4.25-4.49-.34,1.05-.55,2.65-.98,4.31-.45,1.66-1.14,3.37-2.45,4.68-.56-.68-2.13,2.01-2.92,3.36,.16,1.34,1.24,1.26,1.9,1.99,.68,.74,.83,2.22-.51,6.78-1.01,1.49-1.84,5.76-3.08,5.04-.87,.99,.49,2.63-1.06,3.53l-.78,.46,1.02-5.95c.26-.14,.79-.43,.9-.97-1.33,.74,.2-6.84-2.77-3.77l-1.38,3.91-1.26,3.94c-1.23,1.72-1.19-1.26-.45-4.18,2.4-3.78,2.14-3.61,2.28-6.62Z"/><path class="i" d="M3066.72,926.98l-.51,.32c.58-2.35,1.1-4.71,1.73-7.05-.46,2.23-.81,4.49-1.22,6.73Z"/><path class="i" d="M3080.48,881.09c-.28,1.47-1.24,2.39-1.47,3.87l-1.73-.64c1.07-1.08,2.09-2.18,3.2-3.23Z"/><path class="i" d="M3066.51,955.21c1.32,2.17-.48,6.66,.66,8.45,.24-1.26-.22-.89-.44-1.25l-.95,2.36c-.68-3.24,.41-6.13,.73-9.55Z"/><path class="i" d="M3087.61,868.41c1.11-2.2,1.46-3.7,1.93-5.27,.51-1.54,1.12-3.16,3.2-5.25,1.13-.75-.09,1.79,1.28,.53,1.37-1.25,.98-2.02,1.18-2.97l-.88,.24c.88-.24,2.15-1.13,3.22-1.58,1.08-.44,1.98-.42,2.14,1.06-2.22,2.78-2.89,5.46-3.53,7.86-.59,2.45-1.19,4.59-3.47,6.39l-2.17-.19-1.2,3.11c-.29,.1-.66-.22-1.06,.81-.43,2.38,1.63-1.01,2.37-.37-.68,2.04-1.44,4.01-2.03,6.07-.46,.63-.2-.83-.48-.72-2.22,2.22-.57,5.16-3.25,6.67,.26-1.32,.57-2.62,.85-3.94-.6,1.02-1.19,1.96-1.79,2.83-.57,.89-1.13,1.72-1.68,2.5-1.11,1.57-2.2,2.95-3.22,4.32,2.26-4.19,2.78-8.03,3.67-11.65,.43-1.81,.84-3.62,1.62-5.35,.77-1.73,1.81-3.43,3.32-5.09Z"/></g><path class="c" d="M2491.41,915.93c.02-.06,0-.12,0-.17-20.38-2.6-37.84-17.75-42.38-38.96-5.19-24.24,8.23-48.14,30.63-56.82,1.67-.65,3.37-1.22,5.13-1.68,39.52-11.29,63.99-51.89,55.14-93.22-9.22-43.09-51.17-70.64-93.7-61.54-6.16,1.32-12.11,3.08-17.54,5.68-.1,.05-.2,.1-.3,.16-18.98,10.88-36.1,19.36-57.11,23.85-88.3,18.89-175.2-37.38-194.1-125.68-11.19-52.32,8.46-98.7,35.36-142.43,.07-.12,.14-.23,.19-.36,15.67-32.61,19.8-71.32,11.63-109.46-19.57-91.46-109.57-149.74-201.03-130.17-70.19,15.02-123.04,71.49-133.93,138.31-1.23,7.55-.13,15.26-.02,23.04,0,.51,.02,1.04,0,1.55,0,.17,0,.32,0,.49,0,.04,0,.09,.01,.13-.04,2.36-.02,4.75,.07,7.12-.02,.06-.02,.09,0,.14-.72,97.66-69.25,185.27-169.05,206.62-94.45,20.21-179.62-31.47-232.65-104.67-.08-.12-.15-.26-.25-.4-9.08-13.42-42.23-23.08-67.27-17.72-39.07,8.36-64.29,45.37-56.31,82.67,3.22,15.03,15.13,30.51,22.35,37.29,31.58,29.24,43.97,42.65,50.76,74.4,13.69,63.97-27.08,126.93-91.05,140.62-23.44,5.02-46.77,2.76-67.58-5.35-28.39-11.97-60.73-15.38-93.15-7.86-82.21,19.08-133.35,102.81-112.91,184.7,19.7,78.91,98.45,124.97,179.06,111.65,4.27-.71,8.2-1.42,12.6-2.35,.19-.04,.39-.07,.59-.08,54.18-3.19,104.18,34.43,115.89,89.13,8.87,41.46-6.48,82.47-36.54,108.26-.03,.04-.07,.07-.1,.09-.84,.69-1.68,1.38-2.5,2.09-.04,.04-.07,.07-.12,.09-.61,.51-1.21,1.03-1.8,1.55-59.73,51.63-90.21,133.39-72.53,216.05,25.84,120.75,144.67,197.68,265.4,171.84,66.89-14.31,120.6-57.08,150.56-112.98,20.72-38.95,53.97-74.4,101.3-84.53,76.14-16.29,147.28,33.51,167.36,108.36,.07,.31,.28,.59,.33,.9,28.62,96.9,127.71,156.86,228.14,135.37,105.43-22.56,170.53-106.46,150.34-212.34-4.68-24.59-11.51-36.27-24.94-64.48-1.5-2.21-9.91-31.03-9.91-31.03,0,0-48.93-183.97,147.78-201.29,.12-.01,.24-.02,.36-.02,28.6-.21,47.28,6.18,71.61,3.96,75.26-6.87,120.97-88.52,105.16-162.41-13.41-62.67-67.73-106.05-129-108.13Z"/><text class="e" transform="translate(1586.8 1273.31)"><tspan x="0" y="0">STAIN</tspan></text><circle class="h" cx="2683.39" cy="616.87" r="60.9" transform="translate(-27.9 1096.47) rotate(-22.98)"/><g><rect class="d" x="3007.62" y="1097.47" width="115.46" height="81.25" transform="translate(699.91 3395.6) rotate(-64.03)"/><g class="m"><g><path class="i" d="M3038.55,1118.47l.25,.12c-.66-.12-.44,.71-.69,.58-.04-.33,.03-.7,.45-.7Z"/><g><path class="i" d="M3011.25,1159.34l.66,.32c.05,.95-1.02,.84-1.43,1.05-.42-.2-1.11,.18-1.04-.61,.24-.91,1.06-.92,1.81-.76Z"/><path class="i" d="M3024.8,1152.81c-.22-1.24,1.98,.35,1.71-1.63-.21-.41-1.15,.05-1.08-.73,1.53-3.15,.58-7.51-.03-11.09,.5,.65,1.86,.39,2.2,1.38,.68,1.56-.36,4.75,2.4,4.35,2.6,.34,5.01,2.13,6.52,4.3,3.88,.25,3.25-4.98,7.17-5.02,.67,.53,.88,1.35,.81,2.14-.23,2.15-2.65,3.12-2.38,5.3,.91,.24,1.98,.15,2.65,.88,1.51,2.38,3.68,4.66,4.73,6.71-1.11,.59-2.6,.07-3.41,.9,.67,.74-.43,1.94,.93,2.3,.13,.99-1.06,1.33-1.8,1.59,.05,1.36,4.43,1.64,2.26,2.74-.2,1.03-1.32-.23-1.73-.23,.04-.29-.09-.66-.17-.91-2.97,.2-5.66-1.01-8.59-.9-1.01,2.28,1,4.49,.69,7-.66-.32-.6-1.73-1.22-2.34l-1.95-.85c-1.54,2.12-3.5,.45-5.14,1.5,.04-.49,.61-1.24,.52-1.9,.85-1.53-1.62-1.3-1.35-2.71-1-.49-2.18,.48-3.25,.57-.36,1.16-1.59,1.38-1.75,2.53-.73,.87-.83-.82-1.45-.81,1.38-1.79,3.64-3.26,4.15-5.57-1.41-.48,.85-1.33-.64-1.64l-1.19,.34c.2-.41,.2-.83-.3-1.07-.78,.13-1.69,.31-2.47,.65,.12-.46,.65-1.12,.23-1.74l-1.61-.27c1.56-.26,2.79-1.1,3.52-2.39-.3-.66-1.36-.15-1.41-.48,.33-.05,1.15-.05,1.36-.47-1.09-1.35-3.16-2.77-4.81-2.75,.58,.08,.04-.49,.16-.74,1.9,.31,3.89,1.07,5.74,1.05Z"/><path class="i" d="M3045.58,1112.46c2.05-1.26,3.59-.2,5.5,.93,.22,1.23,1.22,2.54,.99,3.66-1.69,.1-1,3.1-2.87,1.88-.19,1.65-1.93,.39-2.89,.24-1.12-.44-1.67-1.63-2.01-2.62,.03-.7,.36-1.37-.1-2.1,.49-.58,1.97-.89,1.38-1.99Z"/><path class="f" d="M3045.97,1114.6c.17,.7-.45,.5-.78,.34,.2-.62,.71,.45,.78-.34Z"/><path class="f" d="M3046.27,1115.46c-.48,1.2,.92,.86,1.54,1.68-.42-.61-.25-.53,.11-1.07,.54,.57-.24,1.12,.75,.98-.08-.04,.61-.83-.18-1.11,1.11-.38,.93,1.89,1.54,1.67-.62-.41-1.03-.19-1.69-.31-.45,.09-.24,.7-.48,1-.17-.7-.54-.78-1.41-.69,.17,.08,.54-.05,.53-.25-.16,.13-.46-.12-.62-.2,0-.2,.16,.08,.33-.04-.05-1.16-.87-.32-1.32-.23,.08-.17,.74-.26,.65-.91,0-.62-.54-.16-.75-.36l.99-.13Z"/><path class="f" d="M3046.76,1115.09c-.25-.12-.21-.41-.42-.41,.87,.32,.44-1.12,1.03-.22-.38-.7,.61-1.24,.19-1.65l.87,.32c-.08,.16-.16,.12-.37,.13,.13,.58,1.16,.15,1.07-.3l.34,1.19c.13,.16-.17-.7-.5-.24,.05,1.15,1.07,.11,1.45,.19-.32,.87-.43,1.94,.64,2.26-.87-.32-1.04-.4-1.99-.76-.34-.78,1.07,.11,.57-.75l-.5-.04c.12-.04,.21,0,.25-.08-.62,0-.92-.65-1.49-.11,.42,.61,0,.62,.1,1.28,.69-1.2-1.21-1.1-1.91-.72,.33-.25,.38,.49,.66-.09Z"/><path class="i" d="M3047.53,1113.51l.21,.41-.21-.41Z"/><polygon class="i" points="3048.06 1117.47 3047.19 1117.35 3047.32 1117.1 3048.06 1117.47"/><path class="i" d="M3021.72,1169.87l.87-.09-.87,.09Z"/><path class="f" d="M3048.6,1117.83c.3,1.28-.17-.9,.87,.12-.74,.26-.15,1.16-1.11,.38l.24-.5Z"/><path class="i" d="M3026.2,1169.09c.7,.03,.59,1.52-.15,1.16-.5-.24-.63-1.23,.15-1.16Z"/><path class="i" d="M3066.17,1089.77c.99-.34,1.59-2.2,2.58-1.93,0,.62,.5,.86,1.08,.73,.49-.38,.36-1.16,1.06-1.33,1.75,1.67,2.11,.31,4.18,1.32,.82-.42,.68-1.61,.8-2.48,.54,.16-.08,.58,.09,.86,1.3-2.03,1.11-4.59,2.2-6.83-.04,.5,.95,.57,.99,.48l-.9,4.79c3.08,3.14,6.8,3.93,11.18,4.22,1.24,.19,1.34-2.32,2.38-.89,.07,2.39-3.56,2.88-3.08,5.06,1.43,2.13,2.4,4.96,3.25,6.81,.02,1.65-2.72-.1-2.04,2.08,.41,.2,1.03,.2,1.29,.73-.61,.63-2.19-.35-2.38,1.1,.17,.7,1.41,.48,.92,1.47-.74,.67-1.49-.93-2.23,.15-1.89,.93,.64,1.64,.03,2.68-.58,.13-1.28-.32-1.7-.73-.66,.3-2.01,.76-2.62,1.6,.42,.41,.76,1.19,.8,1.72-1.2-.28-2.41-1.58-3.93-1.4-1.27,.51,.63,1.44-.68,1.82-.58-.49-.68-1.77-1.59-2.01l-1.64,1.05c-3.52-1.61-5.37-4.77-9.14-5.88-.8-2.14-2.47-3.77-4.01-5.24,.78-.54,1.48-.92,1.47-1.95-.38-.49-.71-1.06-1.09-1.56,.16-.54,.86-.5,.85-1.12l-.84-1.23c.82-.63,1.89-.93,2.17-1.92,.49-.79-.43-1.23-.76-1.8,.33-.46,.91-.38,1.32-.39Z"/><path class="i" d="M3024.84,1181.14c.13,.37,0,1.03-.32,1.28-.5-.24-.26-1.15,.32-1.28Z"/><path class="i" d="M3066.45,1113.19c.03-1.11,1.32-.38,1.51-1.21,1.45,.6,2.46-1.27,3.84,.13,2.07,.39,.44,2.47,2.42,3.03-.64,1.74,.13,4.58-2.71,5.56-1.18,1.17-2.28-1.21-2.92,.73-.17-.49-.34-1.19-1.01-1.52-.41-.2-1.11,.38-1.4-.07-.17-.91-.06-2.19-1.3-2.17,.82-.63,.4-1.45-.23-2.06,2.02,.06-.19-2.35,1.79-2.41Z"/><rect class="f" x="3066.62" y="1115.58" width=".09" height=".46" transform="translate(720.68 3384.25) rotate(-64.03)"/><path class="f" d="M3066.94,1116.82c1.24-.22-.16,.54,.79,.9-.92-.86,.05,.54-.86,.5-.38-.7,.45-.29,.44-.91l-.95-.57h.62l-.04,.08Z"/><polygon class="f" points="3068.16 1114.74 3067.75 1114.95 3067.87 1114.7 3068.16 1114.74"/><path class="f" d="M3069.76,1113.57c.29,.24,.08,.25-.2,.41l.2-.41Z"/><polygon class="f" points="3068.04 1118.58 3068.15 1117.92 3068.28 1118.49 3068.04 1118.58"/><polygon class="f" points="3069.44 1118.23 3068.78 1118.32 3069.27 1118.15 3069.44 1118.23"/><path class="f" d="M3069.61,1118.72l.45-.09-.45,.09Z"/><path class="f" d="M3070.58,1116.94l.25,.53-.25-.53Z"/><path class="f" d="M3071.2,1117.56l.54-.05-.54,.05Z"/><path class="i" d="M3080.98,1141.5c0,.62,.39,1.52-.48,1.61-.66,.09-1.12-.65-.96-1.19,.28-.58,1.06-.92,1.44-.43Z"/><path class="i" d="M3085.57,1142.4c2.48,1.01,3.89-2.31,6.49-2.38,1.2,.07,.26,1.57,1.34,1.88,.24-.5,.73-.87,.85-1.33,.29,.45-.19,1.65,.88,1.76,.95,.16,2.1-.31,2.96-.61,1.75,1.26-.06,6.02,3.59,4.42-.49,.58-1.6,.55-1.68,1.34,.3,1.07,3.3,.38,2.13,2.16-.37,.13-.78,.34-.49,.79,.34,1.19,2.15,.23,2.24,1.3-1.44,.63-2.12,2.25-3.86,2.02-.94,.67-.02,1.94-.22,2.56-.64,1.53-2.52-.1-3.45,1.19,.34,1.19,.28,2.8-.54,3.84-.84-1.44-1.86,.02-2.51,.32-1.22-2.34-3.71,.45-4.88-1.35-.12,.45,.05,1.15-.57,1.16-.5-.86,.93-1.91-.56-2.43-.7-.04-.92-1.27-1.82-.89-.45,.09-.4,1.24-.98,.75,.11-1.48-1.23-2.96-1.98-4.35-.38-.9,1.27-1.13,.23-1.94-.54-.16-1.15,.47-1.69-.11,.76-2.61,2.99-5.72,2.13-9.02,.61-.83,1.47-1.13,2.38-1.1Z"/><g><path class="i" d="M3062.09,1130.41c1.07,.11,1.78,.35,2.32,1.34,.46,.74-.4,1.45,.31,2.1-.74-.16-.69,1-1.27,1.13-.82,.22-1.73,.6-2.56-.01-.59-.9-1.71-2.17-.9-3.21,.44-.91,1.39-.96,2.09-1.34Z"/><path class="f" d="M3061.42,1133.27c-.08,.58-.53,.67-.9,.38,.65-.71-.67-.74-.02-1.44,.58,.08,.92,.86,.92,1.06Z"/><path class="f" d="M3061.16,1132.12l.25,.33-.25-.33Z"/><path class="f" d="M3063.59,1131.97l-.54,.05,.13,.16c.08-.17-.71-.45-.83-.82,.41,.2,1.77-.47,1.24,.61Z"/><path class="f" d="M3063.12,1134.2c-.17-.08-.88-1.35-.06-1.77-1.14,1.08,1.04,.4,1,1.31l-.58-.28c.75,.98-.69,.79-1.06,1.12,.04-.08,.12-.04,.16-.12-.17-.29-.5-.45-.79-.28-.08-.04-.04-.33-.25-.12,.36-.95,.83,.2,1.57,.15Z"/><path class="f" d="M3061.93,1134.75l-.24,.29c.04-.29-.46-.33-.21-.62l.46,.33Z"/></g></g></g></g></g><g><rect class="d" x="2963.9" y="1041.03" width="124.46" height="63.63" transform="translate(414.18 2939.98) rotate(-55.08)"/><g class="l"><g><path class="j" d="M3033.31,1008.16c.95-.22,2.46-1.74,3.69-.71,2.88-.83,4.67,1.31,7.01,2.15-.55,1.04,.89,.89,1.38,1.58,.52,.27,1.35-.03,1.81,.46-.12,.8-1.49-.15-1.23,1,.42,2.07,3.1,1.28,4.12,2.61-1.22,.48-2.7-1.09-3.61,.23,.32,1.2,.75,2.74,1.54,3.38,.09-.64,.35-1.53,1-1.69,.48,.07,.49,.7,.28,.99-.3,.94-1.02,1.33-1.43,1.92-.07,1.37,.75,2.48,1.7,3.41,.35-.38,.89,0,1.1,.33,1.19,1.09-.06,2.88,1.33,3.94,.83,.84,1.94,.65,2.69,1.61-.03,.42-.16,.87-.55,1.04-1.48,.21-1.82-1.71-3.45-.9-.35,.38,.04,.83,.22,1.22,1.21,.05,1.73,1.21,2.75,1.65-.53-.01-.23,.46-.3,.68-2.09-.57-3.56-3.28-5.81-2.73-.09,.38,.12,.97-.45,1.02-.34-.15-.86-.42-1.4-.27-1.61,1.8,.03,4.28-.8,6.36-.06-2.08-1.64-4.25-2.28-5.76,.57,1.46-.47,3.22-.73,4.1-.64-2.13-.54-3.3-.53-5.34-1.71-1.1-3.84-1.61-5.81-1.84-.96,.48-.9,2.56-2.39,2.15-.3-1.09,1.48-1.36,1.63-2.59-.34-.77,.36-1.79-.29-2.51-.19,.14-.58,.57-.71,.13-.23-.69,.66-1.84-.44-1.91-.36,.01-.87,.1-1.03,.34-.06-.3-.04-.83-.12-1.23-1.69-.12-.42,1.75-1.42,2.29,.14-3.63-2.01-6.9-1.79-10.39,.92-2.46,1.63-5.51,4.34-6.72Z"/><polygon class="g" points="3036.64 1009.6 3036.55 1009.36 3036.65 1009.34 3036.64 1009.6"/><path class="j" d="M3017.75,1043.4c1.06,.39,1.67,1.17,1.5,2.29-.28,1.04-1.19,1.83-2.04,2.04-.97,.12-.87-1.05-1.5-1.4-.62-1.41,.85-2.87,2.04-2.92Z"/><polygon class="g" points="3038.92 1012.44 3038.65 1012.07 3038.74 1012.31 3038.92 1012.44"/><polygon class="g" points="3040.21 1010.59 3039.83 1010.5 3040.03 1010.46 3040.21 1010.59"/><polygon class="g" points="3041.13 1012.2 3041.19 1011.98 3041.41 1012.05 3041.13 1012.2"/><polygon class="g" points="3041.95 1012.42 3041.67 1012.31 3041.77 1012.3 3041.95 1012.42"/><polygon class="g" points="3043.47 1011.89 3043.01 1011.66 3043.23 1011.72 3043.47 1011.89"/><polygon class="g" points="3041.83 1014.11 3041.47 1014.13 3041.53 1014.17 3041.83 1014.11"/><path class="j" d="M3024.28,1039.63c.59-1.36,1.87-2.42,2.88-3.49,.58,.05,.51,.53,.42,.92-1.35,.92-1.94,2.9-3.4,3.48-.24-.17-.6-1.04,.1-.9Z"/><polygon class="g" points="3043.92 1011.5 3043.7 1011.43 3043.8 1011.41 3043.92 1011.5"/><path class="g" d="M3025.8,1038.21c.15-.34,.12,.08,.32,.05-.76-.18-.09,.38-.56,.67l-.2-.85c.14,.18,.28,.11,.44,.13Z"/><path class="g" d="M3025.08,1038.86l.32,.31c-.45,.39-.15-.55-.5-.17,.06,.04,.14-.08,.19-.14Z"/><path class="g" d="M3026.51,1037.2c.14,.19,.42,.29,.35,.51-.14-.19-.48-.33-.35-.51Z"/><path class="g" d="M3036.03,1025.85c.1,.24,0,.26-.14,.08,.04-.06,.1-.02,.14-.08Z"/><path class="g" d="M3044.97,1014.18c-.12,.18-.31,.32-.57,.31-.09-.51,.29-.42,.57-.31Z"/><rect class="g" x="3035.03" y="1027.95" width=".14" height=".36" transform="translate(454.69 2928.22) rotate(-55.08)"/><path class="g" d="M3037.67,1027.7l.29,.47-.68-.3c.04-.06,.32,.05,.39-.17Z"/><path class="j" d="M2988.95,1109.04c1.33-.13,2.07,1.09,2.99,1.56-1.05,.86,.25,1.68-.3,2.71,.89,1.78,1.43,3.66,2.86,5.19-.62,.37-1.17-1.26-2.34-1.1-1.49,.11-1.53,1.68-1.93,2.64-.05,1.21,.51,2.57-.45,3.32,.62-3.56-3.63-4.84-3.54-8.14,.04-1.83-1.02-4.26,1.02-5.4,.26-.88,1.04-.6,1.69-.77Z"/><path class="g" d="M3043.14,1031.16c.32,.05-.26,0-.32-.05l.32,.05Z"/><path class="j" d="M3039.06,1037c-.03,.42,.77,.54,.62,1.14,.26-.62-.89-.62-.62-1.14Z"/><path class="g" d="M3042.4,1032.6c.21,.33-.23,.46-.13,.7-.26,0-.17-.65,.13-.7Z"/><path class="j" d="M3038.9,1037.61l.07,.41-.07-.41Z"/><path class="j" d="M2997.08,1100.18c2.49-1.54,5.13-2.01,7.92-2.45,.29,.47,1.25,.25,.8,1.01-.19,.66-.92,.69-1.33,1.02-2.49,.65-5.22,.88-7.54,1.92-.65,.17-1.57,.85-2.07-.21-.4-1.34,1.54-1.32,2.22-1.28Z"/><path class="j" d="M3038.93,1038.33l.26,.27-.26-.27Z"/><path class="j" d="M3039.78,1039.02l-.23-.43c-.02,.16,.2,.23,.23,.43Z"/><path class="j" d="M3039.72,1039.24l-.05,.32c-.26,0-.4-.19-.44-.39,.05-.32,.26,0,.48,.07Z"/><path class="j" d="M3022.05,1076.73c1.35,.23,1.55,1.97,2.75,2.28,.67,.82,.54,2.15,.52,3.2-1.24,.38,.09,2.54-1.7,2.18,0,.63-.64,1.68,.24,1.94,1.26-.54,3,.14,3.92-1.17,.36-.01,.25,.53,.26,.89,.55,.74,1.42-.25,2-.2l.24,1.05,.97-.12c.13,.45-.13,1.33,.61,1.4,.96,.4,1.07-1.03,1.82-.32-.07,.48-.9,.52-1.01,1.07,.3,1.1,1.29,1.7,2.16,1.6-.07,.48-.5,.71-.67,1.22,.33,.67,.45,1.64,1.39,1.68,.19,.75-.71,.39-.84,.83,1,.34-.02,1.94,1.33,1.91-.54,.51-.96-.4-1.51,0-2.84,1.91-.33,4.91-2.49,6.86-1.07-1.01-3.04-.35-3.81-1.78-1.45-.21-1.56,1.22-2.02,1.87-.75-.08-1.42-.9-2-.95,.13,1.33-1.68,1.4-1.49,2.77,.62-2.67-1.31-5.88-.47-8.84-.31-.57-.12-1.86-1.21-1.82-1.19,.06-2.13,.38-2.89,1.09-1.02,.44-1.09-.85-2.05-.37,.06-1.11,1.93-.61,2.07-1.83,.91-.16,2.1,.05,2.9-.72,1.21-1.1,1.02-2.74,1.86-3.93-.05-1.45,.12-2.84-.37-4.16-1.92,.08-.34,2.77-2.07,3.61-.53,.25-1.15,0-1.2-.57-.14-1.07,.89-2.93-.84-3.24-.56-.22-1.7,.14-1.62-.86-.72-2.01,.1-3.83,1.65-5.41,1-.81,2.3-.88,3.55-1.16Z"/><path class="j" d="M3009.57,1097.28c-.96,.48-.29-.47-.63-.62,.36-.01,.96,.14,.63,.62Z"/><path class="j" d="M3033.04,1074.83c.36,.25,.79,.64,.94,1.19,.07,.67,.17,1.27-.26,1.77-.58-.05-1.36-.33-1.63-.96-.15-.55-.3-.83-.13-1.33,.23-.46,.6-.73,1.08-.66Z"/><path class="g" d="M3032.58,1075.75c.07-.22,.35-.11,.38,.09l-.06-.04-.09,.38c-.07-.67-.64-.09-.65,.17-.01-.36-.07-.67,.42-.6Z"/><path class="j" d="M3057.29,1041.75c2.24-.3,3.34,2.07,5.04,3.07-1.08,1.55,.84,2.98,.57,4.65-.4-.19-.47-.86-.78-1.17l.51-.09c-.44-.13-.19-.49-.63-.62l.1-.02c-.26-.27-.07-1.29-.65-.72-.25-.53,.16-1.13,.48-1.7-1.08,.4-.26-.89-1.23-.15-.15-.55,.68,.03,.42-.6-.52-1.16-1.98-1.74-3.24-2.09,.11,.34,.8,.38,.63,.88-.77-.8-1.05,1.13-1.88,.28-.12,.8,.18,1.01,.37,1.76,.85,.06,.45-1.02,1.19-.94,.02,.99,1.2,.31,1,1.49-.16-.91-.59-.68-1.16-1.26,.29,.73-.68,.85-.45,1.28l.63-.27c-.55,.41,.42,.92,.63,1.51l-.1,.02c-.05,.32,.3,.21,.42,.29l-.45,.13c.31,1.72,2.49,1.38,2.52,3-.8-.12-.9-1.51-1.96-1.01-1.91-1.33-3.66-3-3.61-5.36-.2-1.11,1.16-1.67,1.66-2.38Z"/><rect class="g" x="3033.15" y="1076.11" width=".15" height=".36" transform="translate(414.39 2947.27) rotate(-55.08)"/><path class="g" d="M3056.99,1043.32c0-.26-.44,.13-.26-.27l.26,.27Z"/><path class="j" d="M3058.16,1043.42c.38,.09-.06,.22,.15,.55-.23-.43-.64-.09-.92-.2,.36-.01,.64,.1,.77-.35Z"/><path class="j" d="M3057.7,1044.08l.28,.11-.28-.11Z"/><path class="g" d="M3056.9,1045.74c.09,.51,.45-.13,.01,.36,.07-.22-.3-.21-.01-.36Z"/><path class="j" d="M3058.56,1043.62c.06,.04,.18,.12,.2,.23-.16-.02-.38-.09-.2-.23Z"/><path class="j" d="M3059.5,1043.29c-.61,.11,.19,.49-.01,.52-.37-.35-.58-.05-.57-.58,.15-.34,.4,.19,.58,.05Z"/><rect class="j" x="3058.54" y="1045.11" width=".07" height=".65" transform="translate(450.52 2954.86) rotate(-55.08)"/><path class="g" d="M3058.3,1046.53c-.14,.08-.09-.24-.11-.35,.02,.1-.05,.32,.11,.35Z"/><path class="g" d="M3058.01,1046.95c0,.26-.2,.04-.26,0,.1-.02,.24-.1,.26,0Z"/><polygon class="j" points="3060.08 1044.23 3059.87 1043.91 3060.29 1043.93 3060.08 1044.23"/><polygon class="j" points="3067.21 1034.4 3066.99 1034.08 3067.12 1033.9 3067.21 1034.4"/><path class="j" d="M3058.98,1045.94c.11,.35,.01,.36-.31,.31,.2-.04,.23-.2,.31-.31Z"/><path class="j" d="M3044.39,1068.74c1.51,.88,1.7,2.78,1.44,4.29-1.2,.32-2.5-.24-3.47-.74-.41-.55-.43-1.54-.28-2.14,.62-.89,1.17-1.93,2.31-1.4Z"/><path class="j" d="M3058.39,1050.85c2.01,1.05,1.6,3.16,2.13,4.95-.33,.22-1.01,.18-.91,.79-1.11-.69-2.27-.43-3.65,.02-.78-.28-1.47-.94-1.53-1.87-.73-1.75,1.92-1.23,1.13-3.02,.47-1.18,1.8-1.31,2.82-.87Z"/><path class="j" d="M3060.17,1046.78l.38,.09-.38-.09Z"/><path class="j" d="M3061.26,1045.59l.23-.2-.23,.2Z"/><path class="g" d="M3056.34,1053.15c.32,.05,.23-.2,.15-.34,.77,.54,1.58,2.43,2.16,1.6l-.48-.33c.46-.03,.8-.77,1.3-.6l-.42,.6-.07-.4c-.42-.03-.21,.56-.46,.66,.27,.63,1.06,.39,.68,1.18-.42-.03-.49-.43-.94-.3,.45,.49,0,.26-.18,.76l-.07-.4c.06,.04,.1-.02,.16,.02,.05-.58-.89-.62-.66-1.35-.31,.58-1.1-.32-1.6-.5,.58,.32,.67-.33,.38-.8,.06,.04,.08,.14,.04,.2Z"/><path class="g" d="M3055.9,1054.79c.04,.2-.25,.36-.15,.6-.35,.38,.15-.6,.15-.6Z"/><polygon class="j" points="3060.04 1048.99 3060.11 1048.51 3060.27 1048.79 3060.04 1048.99"/><polygon class="j" points="3069.38 1035.74 3069.1 1035.63 3069.26 1035.66 3069.38 1035.74"/><path class="k" d="M3057.44,1053.74c-.08,.12-.27,.26-.39,.44l.08-.12-.5-.17c.25-.36,.81,.12,.81-.14Z"/><path class="g" d="M3056.37,1054.5l.68,.3-.68-.3Z"/><path class="g" d="M3057.85,1053.14c-.4,.07-.08,.12-.4-.19l.4,.19Z"/><path class="g" d="M3044.45,1072.33c-.08,.12-.02,.16-.06,.22l-.36-.25c.16,.02,.31-.05,.42,.03Z"/><path class="g" d="M3057.8,1052.57l.17,.39-.17-.39Z"/><path class="g" d="M3056.48,1055.11c-.12,.18-.06,.22,.14,.18-.18,.14-.34-.15-.44-.13l.3-.05Z"/><polygon class="g" points="3058.53 1052.55 3058.21 1052.5 3058.29 1052.38 3058.53 1052.55"/><polygon class="j" points="3051.02 1063.44 3050.86 1063.15 3051 1063.08 3051.02 1063.44"/><polygon class="g" points="3058.32 1053.11 3058.2 1053.02 3058.4 1052.73 3058.32 1053.11"/><polygon class="j" points="3051.93 1063.02 3051.56 1062.66 3051.69 1062.85 3051.93 1063.02"/><path class="j" d="M3061.43,1048.9l.07,.67c-.04-.2-.57-.58-.07-.67Z"/><path class="j" d="M3074.07,1038.04l-.09,.38c-.2-.23-.04-.2,.09-.38Z"/><path class="j" d="M3034.9,1108.49c1.05,.02,1.71,1.11,2.2,1.8,.07,1.55,.39,3.38-1.2,4.13-.53,.25-1.14,.36-1.82,.32-.59-.68-2.16-.97-2.19-2.32-.26-1.78,.76-4.26,3.01-3.93Z"/><path class="j" d="M3057.41,1077.39c1.19,.21,1.3,1.44,1.63,2.11,.06,.93-.15,2.11-1.07,2.54-.39,.43-.93,.32-1.48,.21-.74-.34-1.57-1.18-1.59-2.17-.37-1.5,1.06-3.16,2.5-2.69Z"/></g></g></g></svg>