<?xml version="1.0" encoding="UTF-8"?><svg id="a" xmlns="http://www.w3.org/2000/svg" xmlns:xlink="http://www.w3.org/1999/xlink" viewBox="0 0 1920 1920"><defs><style>.c{fill:url(#b);}.d{fill:#0141e5;}</style><linearGradient id="b" x1="316.89" y1="679.57" x2="1617.66" y2="1196.01" gradientTransform="matrix(1, 0, 0, 1, 0, 0)" gradientUnits="userSpaceOnUse"><stop offset="0" stop-color="#e55101"/><stop offset=".23" stop-color="#e50132"/><stop offset=".49" stop-color="#e5019b"/><stop offset=".73" stop-color="#d001e5"/><stop offset="1" stop-color="#0141e5"/></linearGradient></defs><path class="c" d="M1466.85,1015.9s.03-.11,.03-.16c-18.12-6.36-31.11-23.62-31.11-43.89,0-23.17,16.93-42.38,39.11-45.93,1.65-.27,3.32-.45,5.02-.53,38.33-2.59,68.62-34.91,68.62-74.41s-32.95-74.56-73.6-74.56c-5.89,0-11.67,.44-17.14,1.76-.1,.02-.2,.05-.3,.08-19.48,6.23-36.78,10.63-56.86,10.63-84.38,0-152.8-68.42-152.8-152.8,0-50,27.03-88.54,60.16-123.24,.09-.09,.17-.19,.25-.29,20.7-26.74,32.04-61.3,32.04-97.75,0-87.41-70.85-158.26-158.26-158.26-67.08,0-126.42,41.27-149.44,100.21-2.6,6.66-3.1,13.92-4.52,21.05-.09,.47-.19,.95-.3,1.42-.03,.16-.06,.3-.09,.45-.02,.03-.02,.08-.02,.12-.5,2.15-.95,4.33-1.33,6.52-.03,.05-.03,.08-.03,.12-19.76,89.11-99.51,155.77-194.89,155.77-90.26,0-157.99-63.88-192.14-141.15-.05-.12-.09-.27-.15-.41-5.67-14.04-34.08-29.35-58.01-29.35-37.34,0-67.62,28.89-67.62,64.54,0,14.36,7.86,30.84,13.13,38.45,23.14,32.9,31.84,47.57,31.84,77.91,0,61.14-49.57,110.7-110.7,110.7-22.41,0-43.28-6.63-60.72-18.1-23.6-16.49-52.49-25.93-83.59-25.39-78.86,1.36-141.97,67.88-139.3,146.71,2.58,75.96,65.54,133.46,141.81,137.05,4.04,.18,7.77,.31,11.97,.31,.18,0,.37,.01,.55,.04,50.14,7.68,88.48,51.84,88.48,104.11,0,39.62-22.05,74.09-54.56,91.79-.03,.03-.08,.05-.11,.06-.9,.47-1.81,.94-2.7,1.42-.05,.03-.08,.05-.12,.06-.65,.34-1.31,.7-1.95,1.06-64.68,35.5-108.52,104.26-108.52,183.25,0,115.4,93.55,208.94,208.94,208.94,63.93,0,121.37-28.58,159.68-73.81,26.55-31.54,63.87-57.44,109.1-57.44,72.77,0,128.04,59.42,131.75,131.75,0,.3,.14,.59,.12,.89,7.2,94.15,86.04,168.32,182.02,168.32,100.76,0,176.66-63.94,178.9-164.65,.53-23.39-3.43-35.39-10.18-63.8-.94-2.31-2.99-30.3-2.99-30.3,0,0-8.74-177.69,174.4-155.05,.11,.01,.22,.03,.33,.05,26.17,5.4,42,14.89,64.67,17.62,70.12,8.44,127.86-57.24,127.86-127.86,0-59.89-41.16-110.16-96.75-124.04Z"/><circle class="d" cx="1700.76" cy="780.14" r="56.91" transform="translate(-116.84 335.7) rotate(-10.9)"/></svg>