<?xml version="1.0" encoding="UTF-8"?><svg id="a" xmlns="http://www.w3.org/2000/svg" viewBox="0 0 1080 1080"><defs><style>.b{fill:#d001e5;}</style></defs><g><path class="b" d="M515.92,187.17l.89,261.57,.88,260.57,.5,146.76c.05,14.8,23.05,14.83,23,0l-.89-261.57-.88-260.57-.5-146.76c-.05-14.8-23.05-14.83-23,0h0Z"/><path class="b" d="M534.96,191.99c1.72-24.17-19.62-42.41-40.44-49.79-23.95-8.49-52.09-5.14-75.18,4.43-41.15,17.06-75.13,58.56-62.78,105.13,6.71,25.31,25.34,45.95,47.67,58.85,12.84,7.42,24.44-12.45,11.61-19.86-15-8.67-28.51-21.91-34.73-37.8-5.91-15.08-5.54-30.64,1.23-44.47,16.04-32.77,57.09-52.48,93.16-47.33,9.47,1.35,19.39,4.77,26.64,11.07,3.6,3.13,5.93,5.73,8.05,9.79,.6,1.15,1.01,2.29,1.55,4.36,.95,3.63,.06-.9,.26,1.25,.14,1.46,.07,2.91-.04,4.37-.44,6.2,5.6,11.5,11.5,11.5,6.59,0,11.06-5.28,11.5-11.5h0Z"/><path class="b" d="M351.75,228c-35.4-1.54-71.92,22.99-77.83,59.13-6.97,42.64,20.64,77.71,37.12,114.43,7.83,17.45,13.41,39.17,5.27,57.53-2.51,5.67-1.65,12.35,4.13,15.73,4.9,2.86,13.21,1.58,15.73-4.13,16.96-38.28-1.78-75.55-19.87-109.48-14.45-27.1-33.44-66.06-8.65-92.46,11.4-12.15,27.45-18.49,44.1-17.76,6.21,.27,11.5-5.48,11.5-11.5,0-6.45-5.27-11.23-11.5-11.5h0Z"/><path class="b" d="M290.59,344.53c-35.01,2.31-70.91,17.24-92.9,45.42-10.33,13.23-16.79,28.65-17.63,45.52s4.04,32.43,12.29,46.16c10.21,16.97,25.7,30.52,43.34,39.36,5.55,2.78,12.46,1.47,15.73-4.13,2.98-5.1,1.45-12.94-4.13-15.73-12.31-6.17-24.04-15.09-31.73-25.97-3.84-5.43-7.1-11.34-9.02-16.8-2.23-6.33-3.29-11.4-3.52-17.14-.51-12.73,2.96-23.29,10.39-34.12,6.89-10.03,17.8-18.96,28.99-25.3,14.7-8.31,31.33-13.17,48.18-14.28,6.2-.41,11.5-4.99,11.5-11.5,0-5.91-5.27-11.91-11.5-11.5h0Z"/><path class="b" d="M197.25,491.23c-23.44,10.48-38.7,35.81-35.86,61.55,3.48,31.57,26.67,55.74,47.25,77.99,11.34,12.26,22.56,24.63,30.44,39.48,6.94,13.08,26.8,1.47,19.86-11.61-16.81-31.7-47.77-52.55-65.8-83.29-7.19-12.27-10.96-25.29-8.04-37.18s11.29-21.51,23.76-27.08c5.67-2.54,7.02-10.79,4.13-15.73-3.41-5.84-10.04-6.67-15.73-4.13h0Z"/><path class="b" d="M193.47,618.61c-33.41,14.64-60.36,45.59-63.29,82.83-2.89,36.83,22.93,68.2,53.62,85.16,19.72,10.9,41.84,16.78,64.31,17.72,6.21,.26,11.5-5.47,11.5-11.5,0-6.45-5.27-11.24-11.5-11.5-30.92-1.3-63.51-14.6-82.6-39.45-7.67-9.98-12.46-22.46-12.53-34.78-.08-13.11,4.28-25.44,12.17-37.08,9.41-13.87,24.08-24.58,39.93-31.53,5.69-2.49,7-10.82,4.13-15.73-3.43-5.87-10.02-6.63-15.73-4.13h0Z"/><path class="b" d="M176.44,786.14c-3.51,39.65,25.13,74.86,59.9,90.3,19.13,8.5,39.84,12.88,60.79,12.89,22.08,.02,42.39-5.98,63.1-12.95,19.35-6.5,43.92-14.24,63.18-3.33,12.9,7.3,24.5-12.56,11.61-19.86-17.92-10.15-39.67-9.76-59.24-5.35-20.39,4.59-39.44,14.06-60.2,17.23-34.68,5.29-74.91-4.05-99.09-30.63-12.39-13.61-18.62-30.5-17.05-48.31,.55-6.19-5.68-11.5-11.5-11.5-6.68,0-10.95,5.29-11.5,11.5h0Z"/><path class="b" d="M438.93,867.34c10.39,19.45,33.22,31.41,55.13,28.71,22.07-2.72,41.25-18.7,47.02-40.35,3.82-14.32-18.36-20.42-22.18-6.11-3.2,12.01-14.17,21.88-26.27,23.65-13.6,1.99-27.37-5.38-33.85-17.5-6.98-13.06-26.84-1.46-19.86,11.61h0Z"/><path class="b" d="M408.29,363.97c48.29,37.94,85.13,90.37,95.12,151.77,1,6.14,8.62,9.55,14.15,8.03,6.52-1.79,9.03-7.99,8.03-14.15-10.53-64.73-50.09-121.9-101.03-161.92-4.88-3.83-11.5-4.76-16.26,0-3.99,3.99-4.91,12.41,0,16.26h0Z"/><path class="b" d="M398.71,477.51c2.77,14.33-5.13,29.62-17.27,38.7-14.28,10.69-32.6,14.66-50.16,13.78-6.21-.31-11.5,5.51-11.5,11.5,0,6.49,5.27,11.19,11.5,11.5,23.66,1.19,47.93-5.61,66.49-20.54s27.59-37.91,23.11-61.06c-1.18-6.1-8.49-9.59-14.15-8.03-6.38,1.75-9.22,8.03-8.03,14.15h0Z"/><path class="b" d="M372.63,641.97c17.05-20.62,45.56-28.25,71.62-25.69,6.19,.61,11.5-5.72,11.5-11.5,0-6.72-5.29-10.89-11.5-11.5-31.31-3.08-67.33,7.56-87.88,32.42-3.95,4.78-4.68,11.58,0,16.26,4.07,4.07,12.29,4.81,16.26,0h0Z"/><path class="b" d="M532.62,865.19c4.98-32.79-26.87-51.94-53.69-60.81-14.67-4.85-29.87-7.88-44.6-12.53-12.46-3.94-25.69-9.05-34.67-18.93-7.66-8.43-7.69-18.42,1.18-25.36,4.89-3.83,4.02-12.25,0-16.26-4.83-4.83-11.36-3.84-16.26,0-11.5,9-15.62,24.07-12.19,38s14.75,25.25,27.16,32.58c27.11,16,59.77,16.56,87.62,30.41,6.74,3.35,13.07,7.51,17.93,13.34,1.52,1.83,3.48,4.98,4.07,6.42,.25,.62,.44,1.28,.63,1.93,.06,.22,.69,2.69,.5,1.51,.1,.65,.08,1.33,.11,1.99,.01,.24-.11,2.66,.05,1.62-.93,6.13,1.55,12.36,8.03,14.15,5.44,1.49,13.21-1.85,14.15-8.03h0Z"/><path class="b" d="M273.01,733.96l8.09,22.13c2.13,5.83,7.81,9.77,14.15,8.03,5.62-1.54,10.17-8.28,8.03-14.15l-8.09-22.13c-2.13-5.83-7.81-9.77-14.15-8.03-5.62,1.54-10.17,8.28-8.03,14.15h0Z"/><path class="b" d="M506.48,225.07c-6,10.96-17.12,18.08-29.34,21.59-14.2,4.08-8.16,26.28,6.11,22.18,17.61-5.07,34.12-15.8,43.08-32.16,7.11-12.99-12.74-24.61-19.86-11.61h0Z"/></g><g><path class="b" d="M562.07,187.09l-.89,261.57-.88,260.57-.5,146.76c-.05,14.8,22.95,14.82,23,0l.89-261.57,.88-260.57,.5-146.76c.05-14.8-22.95-14.82-23,0h0Z"/><path class="b" d="M589.03,191.91c-.48-6.83,1.87-11.97,7.23-17.35,5.94-5.96,13.6-9.78,21.75-11.91,19.07-5,40.69-1.67,58.42,6.53,15.76,7.29,30.04,18.48,38.94,33.21,8.39,13.89,10.95,29.01,6.51,44.52-5.36,18.7-19.75,33.96-36.73,43.76-12.81,7.4-1.24,27.28,11.61,19.86,20.58-11.89,37.2-29.8,45.55-52.2,7.62-20.44,5.58-42.8-4.1-62.15-21.59-43.12-77.54-66.81-123.84-56.32-23.75,5.38-50.26,24.99-48.34,52.05,.44,6.2,4.97,11.5,11.5,11.5,5.88,0,11.94-5.27,11.5-11.5h0Z"/><path class="b" d="M749.24,250.92c14.27-.62,28.7,3.9,39.5,13.32,11.71,10.21,17.24,23.88,16.51,39.87-.82,17.97-8.92,34.84-17.1,50.51-8.9,17.05-18.7,33.81-24.78,52.15-7.03,21.18-7.68,43.26,1.45,63.86,2.52,5.68,10.8,7.01,15.73,4.13,5.85-3.42,6.65-10.03,4.13-15.73-7.37-16.64-3.28-35.71,2.96-51.97,6.99-18.21,17.78-34.76,26.15-52.33,8.64-18.12,15.77-38.11,14.39-58.51-1.26-18.62-9.05-35.87-23.18-48.23-15.33-13.4-35.32-20.95-55.76-20.06-6.21,.27-11.5,5.09-11.5,11.5,0,6.02,5.27,11.77,11.5,11.5h0Z"/><path class="b" d="M810.4,367.45c28.3,1.87,57.11,14.35,74.99,36.58,7.26,9.03,12.14,20.85,12.58,32,.48,12.14-2.78,23.28-9.19,33.91-8.12,13.48-20.71,23.9-35.09,31.11-5.55,2.78-7.12,10.62-4.13,15.73,3.3,5.65,10.16,6.92,15.73,4.13,30.34-15.21,54.27-44.97,55.66-79.77,1.37-34.27-22.25-63.12-50.78-79.27-18.32-10.37-38.83-16.04-59.79-17.42-6.2-.41-11.5,5.58-11.5,11.5,0,6.57,5.28,11.09,11.5,11.5h0Z"/><path class="b" d="M892.13,511.01c12.48,5.58,20.71,14.65,23.76,27.08s-.83,24.89-8.04,37.18c-18.03,30.74-48.98,51.59-65.8,83.29-6.93,13.07,12.91,24.7,19.86,11.61,14.28-26.91,39.04-46.34,57.17-70.47,17.09-22.74,27.4-51.05,15.16-78.41-5.99-13.38-17.15-24.18-30.5-30.15-5.67-2.53-12.36-1.64-15.73,4.13-2.87,4.91-1.57,13.19,4.13,15.73h0Z"/><path class="b" d="M895.91,638.4c14.54,6.37,27.41,15.34,37.29,27.86,3.54,4.48,8.01,11.99,10.18,17.37s4.07,13.26,4.42,17.74c1.08,13.81-2.17,25.22-9.87,36.88-7.63,11.56-19.66,21.41-32.36,28.42-16.13,8.9-34.32,13.81-52.7,14.58-6.21,.26-11.5,5.1-11.5,11.5,0,6.03,5.26,11.76,11.5,11.5,38.61-1.62,77.78-18.26,101.48-49.57,21.65-28.61,21.29-66.9,1.34-96.36-11.89-17.56-28.79-31.28-48.18-39.78-5.68-2.49-12.35-1.67-15.73,4.13-2.85,4.88-1.59,13.23,4.13,15.73h0Z"/><path class="b" d="M901.55,786.06c2.97,33.48-22.9,61.39-53.9,72.55-17.77,6.4-36.61,8.73-55.42,7.16-20.32-1.69-38.97-10.2-58.35-15.77-21.97-6.31-47.27-8.58-67.9,3.1-12.88,7.29-1.3,27.17,11.61,19.86,16.76-9.49,38.15-4.62,55.41,.79,21.06,6.6,41.09,14.11,63.38,15.29,39.65,2.1,83.55-11.62,108.8-43.65,13.24-16.81,21.3-37.72,19.38-59.35-.55-6.19-4.89-11.5-11.5-11.5-5.8,0-12.05,5.28-11.5,11.5h0Z"/><path class="b" d="M642.2,855.66c-6.48,12.12-20.24,19.49-33.85,17.5-12.09-1.77-23.07-11.64-26.27-23.65-3.81-14.29-26-8.23-22.18,6.11,5.77,21.62,24.96,37.68,47.02,40.35,21.92,2.66,44.73-9.24,55.13-28.71,6.97-13.05-12.88-24.68-19.86-11.61h0Z"/><path class="b" d="M676.44,347.63c-50.95,40.02-90.51,97.19-101.03,161.92-1,6.12,1.59,12.38,8.03,14.15,5.49,1.51,13.14-1.87,14.15-8.03,9.98-61.39,46.82-113.83,95.12-151.77,4.89-3.84,4.02-12.24,0-16.26-4.83-4.83-11.36-3.85-16.26,0h0Z"/><path class="b" d="M680.1,471.32c-4.47,23.1,4.78,46.39,23.11,61.06s42.79,21.73,66.49,20.54c6.2-.31,11.5-5.06,11.5-11.5,0-5.99-5.27-11.81-11.5-11.5-17.55,.88-35.88-3.1-50.16-13.78-12.14-9.08-20.04-24.38-17.27-38.7,1.18-6.09-1.72-12.41-8.03-14.15-5.63-1.55-12.96,1.9-14.15,8.03h0Z"/><path class="b" d="M744.62,625.63c-20.55-24.86-56.57-35.5-87.88-32.42-6.18,.61-11.5,4.85-11.5,11.5,0,5.75,5.28,12.11,11.5,11.5,26.06-2.56,54.57,5.07,71.62,25.69,3.96,4.79,12.16,4.1,16.26,0,4.74-4.74,3.97-11.46,0-16.26h0Z"/><path class="b" d="M590.55,859c-.14-.95,.2-3.52,.66-5.12,.7-2.4,1.96-4.76,3.76-7.19,3.59-4.82,8.57-8.67,13.72-11.72,13.36-7.9,28.9-11.48,43.79-15.37,27.74-7.24,63-16.45,74.69-45.98,5.85-14.77,1.93-32.49-10.74-42.41-4.89-3.82-11.5-4.77-16.26,0-3.98,3.98-4.92,12.41,0,16.26,2.24,1.75,3.93,3.32,5.06,5.27,.32,.55,.67,1.12,.91,1.71-.12-.28-.39-.97,0,.22,.19,.57,.8,3.75,.67,2.53,.55,5.13-.7,8.6-3.45,12.98-6.07,9.66-19.46,15.58-30.25,19.42-29.18,10.4-62.15,12.88-86.86,33.25-12.84,10.59-20.42,25.53-17.88,42.25,.93,6.15,8.66,9.54,14.15,8.03,6.57-1.81,8.97-7.98,8.03-14.15h0Z"/><path class="b" d="M805.8,727.76l-8.09,22.13c-2.13,5.83,2.39,12.6,8.03,14.15,6.41,1.76,12.01-2.18,14.15-8.03l8.09-22.13c2.13-5.83-2.39-12.6-8.03-14.15-6.41-1.76-12.01,2.18-14.15,8.03h0Z"/><path class="b" d="M574.65,236.6c8.96,16.37,25.47,27.1,43.08,32.16,14.25,4.1,20.34-18.09,6.11-22.18-12.22-3.52-23.34-10.63-29.34-21.59-7.11-12.99-26.98-1.39-19.86,11.61h0Z"/></g><path class="b" d="M457.5,943.25l224.82-1.69c14.79-.11,14.83-23.11,0-23l-224.82,1.69c-14.79,.11-14.83,23.11,0,23h0Z"/><path class="b" d="M492.4,995.71l162.79,2.32c14.81,.21,14.81-22.79,0-23l-162.79-2.32c-14.81-.21-14.81,22.79,0,23h0Z"/><path class="b" d="M255.56,147.47l29.07,33.9c4.05,4.72,12.11,4.15,16.26,0,4.68-4.68,4.06-11.53,0-16.26l-29.07-33.9c-4.05-4.72-12.11-4.15-16.26,0-4.68,4.68-4.06,11.53,0,16.26h0Z"/><path class="b" d="M176.1,230.35l38.76,30.14c4.9,3.81,11.49,4.78,16.26,0,3.97-3.97,4.93-12.43,0-16.26l-38.76-30.14c-4.9-3.81-11.49-4.78-16.26,0-3.97,3.97-4.93,12.43,0,16.26h0Z"/><path class="b" d="M138.54,329.37l42.64,15.07c5.86,2.07,12.58-2.35,14.15-8.03,1.75-6.36-2.15-12.07-8.03-14.15l-42.64-15.07c-5.86-2.07-12.58,2.35-14.15,8.03-1.75,6.36,2.15,12.07,8.03,14.15h0Z"/><path class="b" d="M816.43,179.49c14.71-17.98,32.09-33.23,51.94-45.29,12.63-7.67,1.09-27.57-11.61-19.86-21.43,13.02-40.71,29.47-56.59,48.89-3.93,4.8-4.7,11.56,0,16.26,4.06,4.06,12.31,4.83,16.26,0h0Z"/><path class="b" d="M889.69,232.15l46.51-24.49c13.1-6.9,1.49-26.76-11.61-19.86l-46.51,24.49c-13.1,6.9-1.49,26.76,11.61,19.86h0Z"/><path class="b" d="M926.53,312.83l48.45-5.65c6.17-.72,11.5-4.77,11.5-11.5,0-5.66-5.29-12.22-11.5-11.5l-48.45,5.65c-6.17,.72-11.5,4.77-11.5,11.5,0,5.66,5.29,12.22,11.5,11.5h0Z"/><path class="b" d="M77.65,732.14l-31.01,16.95c-12.99,7.1-1.4,26.97,11.61,19.86l31.01-16.95c12.99-7.1,1.4-26.97-11.61-19.86h0Z"/><path class="b" d="M100.9,794.3l-36.82,24.49c-5.17,3.44-7.39,10.15-4.13,15.73,3,5.13,10.54,7.58,15.73,4.13l36.82-24.49c5.17-3.44,7.39-10.15,4.13-15.73-3-5.13-10.54-7.58-15.73-4.13h0Z"/><path class="b" d="M127.65,892.16l-21.32,20.72c-10.63,10.33,5.64,26.59,16.26,16.26l21.32-20.72c10.63-10.33-5.64-26.59-16.26-16.26h0Z"/><path class="b" d="M997.12,747.51l38.76,9.42c14.38,3.49,20.51-18.68,6.11-22.18l-38.76-9.42c-14.38-3.49-20.51,18.68-6.11,22.18h0Z"/><path class="b" d="M990.49,802.86l27.13,15.07c12.95,7.19,24.57-12.66,11.61-19.86l-27.13-15.07c-12.95-7.19-24.57,12.66-11.61,19.86h0Z"/><path class="b" d="M957.16,868.87l36.82,47.09c3.83,4.9,12.25,4.02,16.26,0,4.83-4.83,3.84-11.35,0-16.26l-36.82-47.09c-3.83-4.9-12.25-4.02-16.26,0-4.83,4.83-3.84,11.35,0,16.26h0Z"/></svg>